<svg id="Layer_4" data-name="Layer 4" xmlns="http://www.w3.org/2000/svg" viewBox="0 0 32 32"><defs><style>.Blue{fill:#1177d7;}.Black{fill:#727272;}</style></defs><rect class="Blue" x="2" y="2" width="10" height="4"/><rect class="Blue" x="2" y="8" width="10" height="4"/><rect class="Blue" x="2" y="14" width="10" height="4"/><rect class="Blue" x="17" y="23" width="10" height="4" transform="translate(47 3) rotate(90)"/><rect class="Blue" x="11" y="23" width="10" height="4" transform="translate(41 9) rotate(90)"/><rect class="Blue" x="23" y="23" width="10" height="4" transform="translate(53 -3) rotate(90)"/><path class="Black" d="M26,12V11a5,5,0,0,0-5-5H20V4L16,7l4,3V8h1a3,3,0,0,1,3,3v1H22l3,4,3-4Z"/></svg>