<?xml version="1.0" encoding="utf-8"?>
<!-- Generator: Adobe Illustrator 21.1.0, SVG Export Plug-In . SVG Version: 6.00 Build 0)  -->
<svg version="1.1" id="Layer_1" xmlns="http://www.w3.org/2000/svg" xmlns:xlink="http://www.w3.org/1999/xlink" x="0px" y="0px"
	 viewBox="0 0 32 32" style="enable-background:new 0 0 32 32;" xml:space="preserve">
<style type="text/css">
	.Yellow{fill:#FFB115;}
	.Green{fill:#039C23;}
	.Black{fill:#727272;}
	.st0{opacity:0.3;}
</style>
<path class="Black" d="M26,26H8v-8H6v9c0,0.5,0.5,1,1,1h20c0.5,0,1-0.5,1-1v-9h-2V26z"/>
<path class="Black" d="M8,4h18v6h2V3c0-0.5-0.5-1-1-1H7C6.5,2,6,2.5,6,3v7h2V4z"/>
<path class="Green" d="M17.4,11.6h-0.7v4.9h0.7c0.6,0,1.1-0.2,1.5-0.7c0.4-0.5,0.5-1.1,0.5-1.8c0-0.7-0.2-1.3-0.5-1.7
	C18.5,11.8,18,11.6,17.4,11.6z"/>
<path class="Green" d="M11.1,11.5c-0.5,0-0.9,0.2-1.2,0.7c-0.3,0.5-0.4,1.1-0.4,1.8c0,0.8,0.1,1.4,0.4,1.8s0.7,0.7,1.2,0.7
	c0.5,0,0.9-0.2,1.2-0.6c0.3-0.4,0.4-1,0.4-1.8c0-0.8-0.1-1.4-0.4-1.9S11.6,11.5,11.1,11.5z"/>
<path class="Green" d="M29,8H5C4.4,8,4,8.4,4,9v10c0,0.6,0.4,1,1,1h24c0.6,0,1-0.4,1-1V9C30,8.4,29.6,8,29,8z M13.3,16.9
	C12.7,17.6,12,18,11.1,18c-0.9,0-1.6-0.4-2.2-1.1S8,15.3,8,14.1c0-1.2,0.3-2.2,0.9-3c0.6-0.8,1.3-1.1,2.3-1.1c0.9,0,1.6,0.4,2.2,1.1
	c0.6,0.7,0.8,1.7,0.8,2.8C14.2,15.2,13.9,16.1,13.3,16.9z M19.9,16.8c-0.6,0.7-1.4,1.1-2.4,1.1h-2.2v-7.7h2.2c2.2,0,3.4,1.3,3.4,3.8
	C20.8,15.1,20.5,16.1,19.9,16.8z M26,11.6h-1.8v6.3h-1.4v-6.3H21v-1.4h5V11.6z"/>
<g class="st0">
	<path class="Yellow" d="M17.4,11.6h-0.7v4.9h0.7c0.6,0,1.1-0.2,1.5-0.7c0.4-0.5,0.5-1.1,0.5-1.8c0-0.7-0.2-1.3-0.5-1.7
		C18.5,11.8,18,11.6,17.4,11.6z"/>
	<path class="Yellow" d="M11.1,11.5c-0.5,0-0.9,0.2-1.2,0.7c-0.3,0.5-0.4,1.1-0.4,1.8c0,0.8,0.1,1.4,0.4,1.8s0.7,0.7,1.2,0.7
		c0.5,0,0.9-0.2,1.2-0.6c0.3-0.4,0.4-1,0.4-1.8c0-0.8-0.1-1.4-0.4-1.9S11.6,11.5,11.1,11.5z"/>
	<path class="Yellow" d="M29,8H5C4.4,8,4,8.4,4,9v10c0,0.6,0.4,1,1,1h24c0.6,0,1-0.4,1-1V9C30,8.4,29.6,8,29,8z M13.3,16.9
		C12.7,17.6,12,18,11.1,18c-0.9,0-1.6-0.4-2.2-1.1S8,15.3,8,14.1c0-1.2,0.3-2.2,0.9-3c0.6-0.8,1.3-1.1,2.3-1.1
		c0.9,0,1.6,0.4,2.2,1.1c0.6,0.7,0.8,1.7,0.8,2.8C14.2,15.2,13.9,16.1,13.3,16.9z M19.9,16.8c-0.6,0.7-1.4,1.1-2.4,1.1h-2.2v-7.7
		h2.2c2.2,0,3.4,1.3,3.4,3.8C20.8,15.1,20.5,16.1,19.9,16.8z M26,11.6h-1.8v6.3h-1.4v-6.3H21v-1.4h5V11.6z"/>
</g>
</svg>
