<?xml version="1.0" encoding="utf-8"?>
<!-- Generator: Adobe Illustrator 21.1.0, SVG Export Plug-In . SVG Version: 6.00 Build 0)  -->
<svg version="1.1" id="Layer_1" xmlns="http://www.w3.org/2000/svg" xmlns:xlink="http://www.w3.org/1999/xlink" x="0px" y="0px"
	 viewBox="0 0 32 32" style="enable-background:new 0 0 32 32;" xml:space="preserve">
<style type="text/css">
	.Black{fill:#727272;}
	.White{fill:#FFFFFF;}
	.st0{opacity:0.2;}
</style>
<path class="Black" d="M26,26H8v-8H6v9c0,0.5,0.5,1,1,1h20c0.5,0,1-0.5,1-1v-9h-2V26z"/>
<path class="Black" d="M8,4h18v6h2V3c0-0.5-0.5-1-1-1H7C6.5,2,6,2.5,6,3v7h2V4z"/>
<path class="Black" d="M29,8H5C4.4,8,4,8.4,4,9v10c0,0.6,0.4,1,1,1h24c0.6,0,1-0.4,1-1V9C30,8.4,29.6,8,29,8z M11.5,11.7h-2V18H8
	v-6.3H6v-1.4h5.5V11.7z M18.2,18l-1.2-2.5c0-0.1-0.1-0.3-0.1-0.5h0c0,0.1-0.1,0.3-0.2,0.5L15.5,18h-1.9l2.2-3.9l-2-3.9h1.9l1,2.3
	c0.1,0.2,0.1,0.4,0.2,0.7h0c0-0.2,0.1-0.4,0.2-0.7l1.1-2.3H20L18,14.1l2.1,3.9H18.2z M28,11.7h-2V18h-1.6v-6.3h-2v-1.4H28V11.7z"/>
<g class="st0">
	<path class="White" d="M29,8H5C4.4,8,4,8.4,4,9v10c0,0.6,0.4,1,1,1h24c0.6,0,1-0.4,1-1V9C30,8.4,29.6,8,29,8z M11.5,11.7h-2V18H8
		v-6.3H6v-1.4h5.5V11.7z M18.2,18l-1.2-2.5c0-0.1-0.1-0.3-0.1-0.5h0c0,0.1-0.1,0.3-0.2,0.5L15.5,18h-1.9l2.2-3.9l-2-3.9h1.9l1,2.3
		c0.1,0.2,0.1,0.4,0.2,0.7h0c0-0.2,0.1-0.4,0.2-0.7l1.1-2.3H20L18,14.1l2.1,3.9H18.2z M28,11.7h-2V18h-1.6v-6.3h-2v-1.4H28V11.7z"/>
</g>
</svg>
