<?xml version="1.0" encoding="utf-8"?>
<!-- Generator: Adobe Illustrator 21.1.0, SVG Export Plug-In . SVG Version: 6.00 Build 0)  -->
<svg version="1.1" id="Layer_1" xmlns="http://www.w3.org/2000/svg" xmlns:xlink="http://www.w3.org/1999/xlink" x="0px" y="0px"
	 viewBox="0 0 32 32" style="enable-background:new 0 0 32 32;" xml:space="preserve">
<style type="text/css">
	.Red{fill:#D11C1C;}
	.Blue{fill:#1177D7;}
	.Black{fill:#727272;}
	.st0{opacity:0.2;}
</style>
<path class="Black" d="M8,4h18v6h2V3c0-0.5-0.5-1-1-1H7C6.5,2,6,2.5,6,3v7h2V4z"/>
<path class="Black" d="M26,26H8V16H6v11c0,0.5,0.5,1,1,1h20c0.5,0,1-0.5,1-1V16h-2V26z"/>
<path class="Red" d="M29,8H5C4.4,8,4,8.4,4,9v10c0,0.6,0.4,1,1,1h24c0.6,0,1-0.4,1-1V9C30,8.4,29.6,8,29,8z M9.5,17.9H8v-7.7h1.5
	V17.9z M18.9,17.9h-1.5v-4.6c0-0.5,0-1,0.1-1.6h0c-0.1,0.5-0.2,0.8-0.2,1l-1.6,5.2h-1.3l-1.6-5.2c0-0.1-0.1-0.5-0.2-1.1h0
	c0,0.8,0.1,1.4,0.1,2v4.3h-1.4v-7.7h2.2l1.4,4.6c0.1,0.4,0.2,0.7,0.2,1.1h0c0.1-0.4,0.2-0.8,0.3-1.1l1.4-4.6h2.2V17.9z M26,17.3
	c-0.7,0.4-1.5,0.7-2.5,0.7c-1.1,0-2-0.3-2.6-1c-0.6-0.7-0.9-1.6-0.9-2.8c0-1.2,0.3-2.2,1-3c0.7-0.8,1.6-1.1,2.8-1.1
	c0.7,0,1.4,0.1,1.9,0.3V12c-0.5-0.3-1.2-0.5-1.9-0.5c-0.6,0-1.2,0.2-1.6,0.7c-0.4,0.5-0.6,1.1-0.6,1.9c0,0.8,0.2,1.4,0.5,1.8
	c0.4,0.4,0.8,0.6,1.5,0.6c0.4,0,0.7-0.1,0.9-0.2v-1.5h-1.4v-1.4H26V17.3z"/>
<g class="st0">
	<path class="Blue" d="M29,8H5C4.4,8,4,8.4,4,9v10c0,0.6,0.4,1,1,1h24c0.6,0,1-0.4,1-1V9C30,8.4,29.6,8,29,8z M9.5,17.9H8v-7.7h1.5
		V17.9z M18.9,17.9h-1.5v-4.6c0-0.5,0-1,0.1-1.6h0c-0.1,0.5-0.2,0.8-0.2,1l-1.6,5.2h-1.3l-1.6-5.2c0-0.1-0.1-0.5-0.2-1.1h0
		c0,0.8,0.1,1.4,0.1,2v4.3h-1.4v-7.7h2.2l1.4,4.6c0.1,0.4,0.2,0.7,0.2,1.1h0c0.1-0.4,0.2-0.8,0.3-1.1l1.4-4.6h2.2V17.9z M26,17.3
		c-0.7,0.4-1.5,0.7-2.5,0.7c-1.1,0-2-0.3-2.6-1c-0.6-0.7-0.9-1.6-0.9-2.8c0-1.2,0.3-2.2,1-3c0.7-0.8,1.6-1.1,2.8-1.1
		c0.7,0,1.4,0.1,1.9,0.3V12c-0.5-0.3-1.2-0.5-1.9-0.5c-0.6,0-1.2,0.2-1.6,0.7c-0.4,0.5-0.6,1.1-0.6,1.9c0,0.8,0.2,1.4,0.5,1.8
		c0.4,0.4,0.8,0.6,1.5,0.6c0.4,0,0.7-0.1,0.9-0.2v-1.5h-1.4v-1.4H26V17.3z"/>
</g>
</svg>
