<?xml version="1.0" encoding="utf-8"?>
<!-- Generator: Adobe Illustrator 23.0.1, SVG Export Plug-In . SVG Version: 6.00 Build 0)  -->
<svg version="1.1" id="Layer_1" xmlns="http://www.w3.org/2000/svg" xmlns:xlink="http://www.w3.org/1999/xlink" x="0px" y="0px"
	 viewBox="0 0 32 32" style="enable-background:new 0 0 32 32;" xml:space="preserve">
<style type="text/css">
	.Red{fill:#D11C1C;}
	.Black{fill:#727272;}
	.Blue{fill:#1177D7;}
	.Yellow{fill:#FFB115;}
</style>
<path class="Black" d="M7.05,19.92c1.06,0,1.83,0.15,2.3,0.46v2.57c-0.58-0.47-1.23-0.71-1.94-0.71c-0.8,0-1.43,0.25-1.89,0.76
	c-0.46,0.51-0.7,1.21-0.7,2.11c0,0.87,0.22,1.55,0.67,2.05s1.06,0.74,1.84,0.74c0.69,0,1.37-0.24,2.03-0.71v2.44
	c-0.63,0.4-1.53,0.59-2.72,0.59c-1.38,0-2.5-0.46-3.36-1.37S2,26.75,2,25.31c0-1.67,0.46-2.98,1.38-3.95
	C4.29,20.4,5.52,19.92,7.05,19.92z M10,8.03v5.94H7.42v-1.43H7.39c-0.59,1.11-1.47,1.67-2.63,1.67c-0.86,0-1.53-0.27-2.02-0.82
	C2.25,12.85,2,12.12,2,11.21c0-1.93,1.01-3.04,3.04-3.34l2.4-0.36c0-1.09-0.52-1.63-1.57-1.63c-1.05,0-2.05,0.35-3,1.06V4.63
	c0.38-0.22,0.9-0.41,1.56-0.58c0.66-0.17,1.26-0.25,1.8-0.25C8.74,3.79,10,5.21,10,8.03z M7.44,9.27L5.84,9.5
	c-0.89,0.13-1.33,0.58-1.33,1.35c0,0.35,0.11,0.64,0.32,0.86c0.21,0.22,0.51,0.34,0.87,0.34c0.51,0,0.93-0.2,1.25-0.6
	c0.32-0.4,0.48-0.9,0.48-1.51V9.27z M21.36,8.75c0,1.65-0.37,2.97-1.1,3.97s-1.71,1.5-2.94,1.5c-1.11,0-1.95-0.46-2.51-1.39h-0.04
	v1.15H12V0h2.78v5.57h0.04c0.69-1.15,1.66-1.73,2.93-1.73c1.16,0,2.05,0.44,2.68,1.31S21.36,7.23,21.36,8.75z M18.51,8.79
	c0-0.82-0.16-1.46-0.48-1.92c-0.32-0.46-0.78-0.69-1.37-0.69c-0.56,0-1.02,0.23-1.38,0.69c-0.37,0.46-0.55,1.05-0.55,1.79v1.01
	c0,0.64,0.17,1.17,0.5,1.59c0.33,0.42,0.76,0.63,1.28,0.63c0.63,0,1.12-0.27,1.47-0.81S18.51,9.77,18.51,8.79z M17.22,16H20v13.98
	h-2.78v-1.36h-0.04c-0.63,1.07-1.56,1.6-2.79,1.6c-1.13,0-2.03-0.44-2.72-1.31s-1.03-2.09-1.03-3.66c0-1.64,0.38-2.95,1.13-3.93
	s1.75-1.48,2.97-1.48c1.16,0,1.97,0.46,2.43,1.37h0.04V16z M17.27,24.42c0-0.64-0.17-1.18-0.51-1.6c-0.34-0.43-0.78-0.64-1.33-0.64
	c-0.62,0-1.1,0.27-1.44,0.8c-0.35,0.53-0.52,1.26-0.52,2.19c0,0.87,0.17,1.54,0.5,2.01s0.8,0.71,1.39,0.71
	c0.56,0,1.02-0.25,1.38-0.74c0.35-0.5,0.53-1.15,0.53-1.97V24.42z"/>
<rect x="24" y="8" class="Blue" width="8" height="2"/>
</svg>
