<?xml version="1.0" encoding="utf-8"?>
<!-- Generator: Adobe Illustrator 24.1.2, SVG Export Plug-In . SVG Version: 6.00 Build 0)  -->
<svg version="1.1" id="Layer_1" xmlns="http://www.w3.org/2000/svg" xmlns:xlink="http://www.w3.org/1999/xlink" x="0px" y="0px"
	 viewBox="0 0 32 32" style="enable-background:new 0 0 32 32;" xml:space="preserve">
<style type="text/css">
	.Blue{fill:#1177D7;}
	.Black{fill:#727272;}
</style>
<path class="Black" d="M2,1v18c0,0.5,0.5,1,1,1h3v3c0,0.5,0.5,1,1,1h3v3c0,0.5,0.5,1,1,1h3v-2h-2V10h14v2h2V9c0-0.5-0.5-1-1-1h-3V5
	c0-0.5-0.5-1-1-1h-3V1c0-0.5-0.5-1-1-1L3,0C2.5,0,2,0.5,2,1z M8,6h14v2H11c-0.5,0-1,0.5-1,1v13H8V6z M4,2h14v2H7C6.5,4,6,4.5,6,5v13
	H4V2z"/>
<rect x="22" y="22" class="Blue" width="2" height="6"/>
<circle class="Blue" cx="23" cy="19" r="1"/>
<path class="Blue" d="M18,16v-2h-2h-1c-0.6,0-1,0.4-1,1v16c0,0.6,0.4,1,1,1h1h2v-2h-2V16H18z"/>
<path class="Blue" d="M28,30v2h2h1c0.6,0,1-0.4,1-1V15c0-0.6-0.4-1-1-1h-1h-2v2h2v14H28z"/>
</svg>
