<?xml version="1.0" encoding="utf-8"?>
<!-- Generator: Adobe Illustrator 24.1.2, SVG Export Plug-In . SVG Version: 6.00 Build 0)  -->
<svg version="1.1" id="Layer_1" xmlns="http://www.w3.org/2000/svg" xmlns:xlink="http://www.w3.org/1999/xlink" x="0px" y="0px"
	 viewBox="0 0 32 32" style="enable-background:new 0 0 32 32;" xml:space="preserve">
<style type="text/css">
	.Black{fill:#727272;}
	.Red{fill:#D11C1C;}
</style>
<polygon class="Red" points="30,8 30,2 28,2 26,4 26,6 28,4 28,8 26,8 26,10 32,10 32,8 "/>
<path class="Black" d="M10.4,28l-1.1-4.5H4.5L3.4,28H0l4.6-18h4.7l4.6,18H10.4z M8.7,20.5l-1-4.2c-0.1-0.3-0.2-0.9-0.4-1.9
	c-0.2-1-0.3-1.7-0.4-2c-0.1,0.7-0.2,1.5-0.4,2.3c-0.2,0.8-0.6,2.8-1.3,5.8H8.7z"/>
<path class="Black" d="M15.4,10.1h4.7c1.9,0,3.3,0.4,4.2,1.1c0.9,0.7,1.3,1.9,1.3,3.5c0,1-0.2,1.9-0.7,2.6c-0.5,0.7-1.1,1.1-1.9,1.3
	v0.1c1,0.3,1.8,0.7,2.3,1.4c0.5,0.7,0.7,1.6,0.7,2.8c0,1.6-0.4,2.9-1.3,3.8C23.8,27.5,22.5,28,21,28h-5.6V10.1z M18.7,17.3h1.6
	c0.7,0,1.2-0.2,1.5-0.6c0.3-0.4,0.4-0.9,0.4-1.7c0-0.7-0.2-1.3-0.5-1.6c-0.3-0.3-0.9-0.5-1.6-0.5h-1.5V17.3z M18.7,20.1v5h1.7
	c0.7,0,1.2-0.2,1.6-0.6c0.3-0.4,0.5-1.1,0.5-2c0-1.6-0.7-2.4-2.2-2.4H18.7z"/>
</svg>
