<?xml version="1.0" encoding="utf-8"?>
<!-- Generator: Adobe Illustrator 23.0.6, SVG Export Plug-In . SVG Version: 6.00 Build 0)  -->
<svg version="1.1" id="Layer_1" xmlns="http://www.w3.org/2000/svg" xmlns:xlink="http://www.w3.org/1999/xlink" x="0px" y="0px"
	 viewBox="0 0 32 32" style="enable-background:new 0 0 32 32;" xml:space="preserve">
<style type="text/css">
	.Blue{fill:#1177D7;}
	.Black{fill:#727272;}
</style>
<path class="Black" d="M31,0H1C0.5,0,0,0.5,0,1v28c0,0.5,0.5,1,1,1h30c0.5,0,1-0.5,1-1V1C32,0.5,31.5,0,31,0z M30,28H2V2h28V28z
	 M4,4v2h24V4H4z"/>
<rect x="4" y="24" class="Black" width="24" height="2"/>
<path class="Blue" d="M24,14V8h-6v2h-4V8H8v6h2v2H8v6h6v-2h4v2h6v-6h-2v-2H24z M20,10h2v2h-2V10z M10,10h2v2h-2V10z M12,20h-2v-2h2
	V20z M22,20h-2v-2h2V20z M20,16h-2v2h-4v-2h-2v-2h2v-2h4v2h2V16z"/>
<rect x="4" y="8" class="Black" width="2" height="2"/>
<rect x="4" y="12" class="Black" width="2" height="2"/>
<rect x="4" y="16" class="Black" width="2" height="2"/>
<rect x="26" y="16" class="Black" width="2" height="2"/>
<rect x="26" y="12" class="Black" width="2" height="2"/>
<rect x="26" y="8" class="Black" width="2" height="2"/>
<rect x="4" y="20" class="Black" width="2" height="2"/>
<rect x="26" y="20" class="Black" width="2" height="2"/>
</svg>
