<?xml version="1.0" encoding="utf-8"?>
<!-- Generator: Adobe Illustrator 24.1.2, SVG Export Plug-In . SVG Version: 6.00 Build 0)  -->
<svg version="1.1" id="Layer_1" xmlns="http://www.w3.org/2000/svg" xmlns:xlink="http://www.w3.org/1999/xlink" x="0px" y="0px"
	 viewBox="0 0 32 32" style="enable-background:new 0 0 32 32;" xml:space="preserve">
<style type="text/css">
	.Blue{fill:#1177D7;}
	.Black{fill:#727272;}
	.Red{fill:#D11C1C;}
</style>
<polygon class="Red" points="26,6 26,0 24,0 22,2 22,4 24,2 24,6 22,6 22,8 28,8 28,6 "/>
<path class="Black" d="M8.1,20l-0.8-3.5H3.5L2.7,20H0L3.6,6h3.6l3.6,14H8.1z M6.7,14.2L6,10.9c0-0.2-0.1-0.7-0.3-1.5
	C5.5,8.7,5.4,8.1,5.4,7.9C5.3,8.4,5.2,9,5,9.7c-0.1,0.7-0.5,2.2-1,4.5H6.7z"/>
<path class="Black" d="M12,6.1h3.7c1.5,0,2.6,0.3,3.3,0.8c0.7,0.6,1,1.5,1,2.7c0,0.8-0.2,1.5-0.5,2c-0.4,0.5-0.9,0.9-1.5,1v0.1
	c0.8,0.2,1.4,0.6,1.8,1.1c0.4,0.5,0.5,1.3,0.5,2.2c0,1.3-0.3,2.3-1,3c-0.7,0.7-1.6,1.1-2.9,1.1H12V6.1z M14.5,11.7h1.2
	c0.6,0,1-0.1,1.2-0.4c0.2-0.3,0.3-0.7,0.3-1.3c0-0.6-0.1-1-0.4-1.2c-0.3-0.3-0.7-0.4-1.2-0.4h-1.1V11.7z M14.5,13.8v3.9h1.3
	c0.6,0,1-0.2,1.2-0.5c0.3-0.3,0.4-0.8,0.4-1.5c0-1.2-0.6-1.9-1.7-1.9H14.5z"/>
<polygon class="Blue" points="12,28 24.3,28 20,32 25.7,32 32,26 26,20 20.3,20 24.3,24 12,24 "/>
</svg>
