<?xml version="1.0" encoding="utf-8"?>
<!-- Generator: Adobe Illustrator 23.0.1, SVG Export Plug-In . SVG Version: 6.00 Build 0)  -->
<svg version="1.1" id="Layer_1" xmlns="http://www.w3.org/2000/svg" xmlns:xlink="http://www.w3.org/1999/xlink" x="0px" y="0px"
	 viewBox="0 0 32 32" style="enable-background:new 0 0 32 32;" xml:space="preserve">
<style type="text/css">
	.Blue{fill:#3575BB;}
	.Black{fill:#737374;}
	.White{fill:#FFFFFF;}
	.Yellow{fill:#FCB01B;}
	.Red{fill:#D02027;}
	.Green{fill:#129C49;}
	.st0{opacity:0.5;}
</style>
<path class="Black" d="M18,26H6V4h18v10.4c0.6-0.2,1.3-0.4,2-0.4V3c0-0.5-0.5-1-1-1H5C4.5,2,4,2.5,4,3v24c0,0.5,0.5,1,1,1h13V26z"/>
<path class="Red" d="M22,12H8v-2h14V12z M20.4,18H8v2h12C20,19.3,20.1,18.6,20.4,18z"/>
<path class="Yellow" d="M31,22h-1v-2c0-2.2-1.8-4-4-4s-4,1.8-4,4v2h-1c-0.5,0-1,0.5-1,1v8c0,0.5,0.5,1,1,1h10c0.5,0,1-0.5,1-1v-8
	C32,22.5,31.5,22,31,22z M24,22v-2c0-1.1,0.9-2,2-2s2,0.9,2,2v2H24z"/>
<g class="st0">
	<path class="Black" d="M22,8H8V6h14V8z M22,16v-2H8v2h13.5H22z M18,23c0-0.3,0.1-0.7,0.2-1H8v2h10V23z"/>
</g>
</svg>
