<?xml version="1.0" encoding="utf-8"?>
<!-- Generator: Adobe Illustrator 23.0.1, SVG Export Plug-In . SVG Version: 6.00 Build 0)  -->
<svg version="1.1" id="Layer_1" xmlns="http://www.w3.org/2000/svg" xmlns:xlink="http://www.w3.org/1999/xlink" x="0px" y="0px"
	 viewBox="0 0 32 32" style="enable-background:new 0 0 32 32;" xml:space="preserve">
<style type="text/css">
	.Red{fill:#D11C1C;}
	.Black{fill:#727272;}
	.Blue{fill:#1177D7;}
</style>
<path class="Black" d="M20,8H2V6h18V8z M20,18H2v-2h18V18z M20,28H2v-2h18V28z"/>
<path class="Blue" d="M30,7c0,1.66-1.34,3-3,3s-3-1.34-3-3s1.34-3,3-3S30,5.34,30,7z M27,14c-1.66,0-3,1.34-3,3s1.34,3,3,3
	s3-1.34,3-3S28.66,14,27,14z M27,24c-1.66,0-3,1.34-3,3s1.34,3,3,3s3-1.34,3-3S28.66,24,27,24z"/>
</svg>
