<?xml version="1.0" encoding="utf-8"?>
<!-- Generator: Adobe Illustrator 23.0.1, SVG Export Plug-In . SVG Version: 6.00 Build 0)  -->
<svg version="1.1" id="Layer_1" xmlns="http://www.w3.org/2000/svg" xmlns:xlink="http://www.w3.org/1999/xlink" x="0px" y="0px"
	 viewBox="0 0 32 32" style="enable-background:new 0 0 32 32;" xml:space="preserve">
<style type="text/css">
	.Red{fill:#D11C1C;}
	.Black{fill:#727272;}
	.Blue{fill:#1177D7;}
</style>
<path class="Black" d="M26,8H8V6h18V8z M22,18H4v-2h18V18z M18,28H0v-2h18V28z"/>
<path class="Red" d="M32,2v8h-2V5.25l-2,0V3.67l0.15,0c0.24,0,0.48-0.02,0.71-0.06c0.26-0.05,0.49-0.14,0.69-0.26
	c0.2-0.12,0.37-0.28,0.51-0.48c0.14-0.2,0.23-0.44,0.27-0.74L30.37,2H32z M27.36,19.98c0.3-0.1,0.58-0.25,0.82-0.46
	c0,0.03,0.01,0.05,0.01,0.08c0.02,0.11,0.05,0.21,0.08,0.32L28.31,20h2.02l-0.12-0.19c-0.07-0.12-0.12-0.3-0.15-0.54
	c-0.03-0.26-0.05-0.53-0.05-0.81v-3.32c0-0.41-0.09-0.75-0.27-1.01c-0.18-0.25-0.41-0.45-0.69-0.59c-0.27-0.14-0.58-0.23-0.9-0.28
	c-0.32-0.05-0.64-0.07-0.96-0.07c-0.35,0-0.69,0.04-1.04,0.11c-0.35,0.07-0.66,0.19-0.95,0.37c-0.28,0.17-0.52,0.41-0.7,0.69
	c-0.19,0.29-0.29,0.66-0.32,1.09l-0.01,0.13h1.93l0.01-0.11c0.03-0.31,0.12-0.53,0.28-0.65c0.17-0.13,0.41-0.2,0.71-0.2
	c0.14,0,0.28,0.01,0.4,0.03c0.12,0.02,0.21,0.05,0.3,0.11c0.08,0.05,0.15,0.12,0.19,0.21c0.05,0.09,0.07,0.22,0.07,0.39
	c0.01,0.14-0.03,0.24-0.11,0.31c-0.1,0.08-0.23,0.15-0.4,0.19c-0.19,0.05-0.4,0.08-0.64,0.11c-0.25,0.02-0.5,0.06-0.76,0.1
	c-0.26,0.04-0.51,0.1-0.77,0.17c-0.26,0.07-0.5,0.19-0.7,0.33c-0.21,0.15-0.38,0.35-0.51,0.6c-0.13,0.25-0.2,0.57-0.2,0.95
	c0,0.34,0.06,0.65,0.17,0.9c0.12,0.26,0.28,0.47,0.48,0.64c0.2,0.17,0.44,0.29,0.71,0.37c0.26,0.08,0.55,0.12,0.85,0.12
	C26.6,20.16,26.99,20.1,27.36,19.98z M28.09,16.98v0.42c0,0.09-0.01,0.22-0.03,0.38c-0.02,0.15-0.07,0.3-0.15,0.44
	c-0.08,0.14-0.2,0.27-0.36,0.37c-0.16,0.1-0.4,0.15-0.71,0.15c-0.13,0-0.25-0.01-0.37-0.03c-0.11-0.02-0.21-0.06-0.29-0.11
	c-0.08-0.05-0.14-0.12-0.18-0.21c-0.04-0.09-0.07-0.2-0.07-0.34c0-0.14,0.02-0.26,0.07-0.35c0.05-0.09,0.11-0.17,0.18-0.22
	c0.08-0.06,0.18-0.11,0.29-0.15c0.12-0.04,0.24-0.07,0.36-0.09c0.13-0.02,0.26-0.04,0.4-0.06c0.14-0.02,0.27-0.04,0.39-0.06
	c0.13-0.03,0.25-0.06,0.36-0.1C28.02,17.01,28.05,17,28.09,16.98z M24,22h-2v2h2V22z M24,30h-2v-4.94h2V30z"/>
</svg>
