<?xml version="1.0" encoding="utf-8"?>
<!-- Generator: Adobe Illustrator 23.0.6, SVG Export Plug-In . SVG Version: 6.00 Build 0)  -->
<svg version="1.1" id="Layer_1" xmlns="http://www.w3.org/2000/svg" xmlns:xlink="http://www.w3.org/1999/xlink" x="0px" y="0px"
	 viewBox="0 0 32 32" style="enable-background:new 0 0 32 32;" xml:space="preserve">
<style type="text/css">
	.Black{fill:#727272;}
</style>
<path class="Black" d="M16,6H8v8h8V6z M12,12h-2V8h2V12z"/>
<path class="Black" d="M22,6v10H6V6H3C2.4,6,2,6.4,2,7v22c0,0.6,0.4,1,1,1h22c0.6,0,1-0.4,1-1V18v-2V7c0-0.6-0.4-1-1-1H22z M22,26H6
	v-6h16V26z"/>
<path class="Black" d="M28,2H7C6.4,2,6,2.4,6,3v1h22v22h1c0.6,0,1-0.4,1-1V4V3c0-0.6-0.4-1-1-1H28z"/>
</svg>
