<?xml version="1.0" encoding="utf-8"?>
<!-- Generator: Adobe Illustrator 22.1.0, SVG Export Plug-In . SVG Version: 6.00 Build 0)  -->
<svg version="1.1" id="DisplayItemAsPage" xmlns="http://www.w3.org/2000/svg" xmlns:xlink="http://www.w3.org/1999/xlink" x="0px"
	 y="0px" viewBox="0 0 32 32" style="enable-background:new 0 0 32 32;" xml:space="preserve">
<style type="text/css">
	.Black{fill:#727272;}
	.Blue{fill:#1177D7;}
</style>
<g id="DisplayItemAsPage">
  <path class="Black" d="M14,8V3c0-0.6-0.4-1-1-1H3C2.4,2,2,2.4,2,3v26c0,0.6,0.4,1,1,1h28c0.6,0,1-0.4,1-1V9c0-0.6-0.4-1-1-1H14z
	  M30,28H4V4h8v6h18V28z"/>
  <path class="Blue" d="M13.7,23.7L16,26h-6v-6l2.3,2.3l2.6-2.6l1.4,1.4L13.7,23.7z M14.9,18.3l1.4-1.4l-2.6-2.6L16,12h-6v6l2.3-2.3
	  L14.9,18.3z M19.1,19.7l-1.4,1.4l2.6,2.6L18,26h6v-6l-2.3,2.3L19.1,19.7z M18,12l2.3,2.3l-2.6,2.6l1.4,1.4l2.6-2.6L24,18v-6H18z"/>
</g>
</svg>
