<?xml version="1.0" encoding="utf-8"?>
<!-- Generator: Adobe Illustrator 22.1.0, SVG Export Plug-In . SVG Version: 6.00 Build 0)  -->
<svg version="1.1" id="TabContainer" xmlns="http://www.w3.org/2000/svg" xmlns:xlink="http://www.w3.org/1999/xlink" x="0px"
	 y="0px" viewBox="0 0 32 32" style="enable-background:new 0 0 32 32;" xml:space="preserve">
<style type="text/css">
	.Blue{fill:#1177D7;}
	.Black{fill:#727272;}
</style>
<g id="InsertTabContainer">
  <path class="Black" d="M16,8V3c0-0.6-0.4-1-1-1H3C2.4,2,2,2.4,2,3v26c0,0.6,0.4,1,1,1h28c0.6,0,1-0.4,1-1V9c0-0.6-0.4-1-1-1H16z
	  M30,28H4V4h10v6h16V28z"/>
  <path class="Blue" d="M17,18h6c0.6,0,1,0.4,1,1v6c0,0.6-0.4,1-1,1h-6c-0.6,0-1-0.4-1-1v-6C16,18.4,16.4,18,17,18z M15,16h3v-3
	  c0-0.6-0.4-1-1-1h-6c-0.6,0-1,0.4-1,1v6c0,0.6,0.4,1,1,1h3v-3C14,16.4,14.4,16,15,16z"/>
</g>
</svg>
