<?xml version="1.0" encoding="utf-8"?>
<!-- Generator: Adobe Illustrator 23.0.6, SVG Export Plug-In . SVG Version: 6.00 Build 0)  -->
<svg version="1.1" id="Layer_1" xmlns="http://www.w3.org/2000/svg" xmlns:xlink="http://www.w3.org/1999/xlink" x="0px" y="0px"
	 viewBox="0 0 32 32" style="enable-background:new 0 0 32 32;" xml:space="preserve">
<style type="text/css">
	.Black{fill:#727272;}
</style>
<rect x="2" y="26" class="Black" width="26" height="2"/>
<polygon class="Black" points="22,4 22,6 24,6 21,19.5 18,6 20,6 20,4 12,4 12,6 14,6 11,19.5 8,6 10,6 10,4 2,4 2,6 4,6 8,24 
	10,24 12,24 15,10.5 18,24 20,24 22,24 26,6 28,6 28,4 "/>
</svg>
