<?xml version="1.0" encoding="utf-8"?>
<!-- Generator: Adobe Illustrator 24.2.1, SVG Export Plug-In . SVG Version: 6.00 Build 0)  -->
<svg version="1.1" id="Layer_1" xmlns="http://www.w3.org/2000/svg" xmlns:xlink="http://www.w3.org/1999/xlink" x="0px" y="0px"
	 viewBox="0 0 32 32" style="enable-background:new 0 0 32 32;" xml:space="preserve">
<style type="text/css">
	.Blue{fill:#1177D7;}
	.Black{fill:#727272;}
</style>
<path class="Black" d="M29,4H1C0.4,4,0,4.4,0,5v24c0,0.6,0.4,1,1,1h28c0.6,0,1-0.4,1-1V5C30,4.4,29.6,4,29,4z M2,28V8h26v20H2z"/>
<path class="Blue" d="M15,20.6V22h-5v-1.4h1.6v-6.7l-2,1.1v-1.7l2.3-1.3h1.5v8.5H15V20.6z"/>
<path class="Blue" d="M15.6,23.6c1.2,0,1.9-0.3,2.3-1.7L16,16.1h-0.7v-1.3h3.1v1.3h-0.6l0.9,3.5l0.9-3.5H19v-1.3h3.1v1.3h-0.7
	l-1.7,5.5c-0.7,2.3-1.2,3.3-4.1,3.3C15.6,24.9,15.6,23.6,15.6,23.6z"/>
</svg>
