<?xml version="1.0" encoding="utf-8"?>
<!-- Generator: Adobe Illustrator 23.0.6, SVG Export Plug-In . SVG Version: 6.00 Build 0)  -->
<svg version="1.1" xmlns="http://www.w3.org/2000/svg" xmlns:xlink="http://www.w3.org/1999/xlink" x="0px" y="0px"
	 viewBox="0 0 32 32" style="enable-background:new 0 0 32 32;" xml:space="preserve">
<style type="text/css">
	.Red{fill:#D11C1C;}
	.Blue{fill:#1177D7;}
	.Black{fill:#727272;}
	.st0{opacity:0.2;}
</style>
<g id="Layer_1">
	<path class="Black" d="M8,8"/>
	<polygon class="Blue" points="30,24 18,24 24,28 	"/>
	<path class="Blue" d="M18,26v5c0,0.6,0.4,1,1,1h10c0.6,0,1-0.4,1-1v-5l-6,4L18,26z"/>
	<path class="Black" d="M6,18H4v11c0,0.6,0.4,1,1,1h11v-2H6V18z"/>
	<path class="Black" d="M6,10V4h18v6h2V3c0-0.6-0.4-1-1-1H5C4.4,2,4,2.4,4,3v7H6z"/>
	<rect x="24" y="18" class="Black" width="2" height="4"/>
	<path class="Red" d="M27,8H3C2.4,8,2,8.4,2,9v10c0,0.6,0.4,1,1,1h24c0.6,0,1-0.4,1-1V9C28,8.4,27.6,8,27,8z M7.5,17.9H6v-7.7h1.5
		V17.9z M16.9,17.9h-1.5v-4.6c0-0.5,0-1,0.1-1.6l0,0c-0.1,0.5-0.2,0.8-0.2,1l-1.6,5.2h-1.3l-1.6-5.2c0-0.1-0.1-0.5-0.2-1.1l0,0
		c0,0.8,0.1,1.4,0.1,2v4.3H9.3v-7.7h2.2l1.4,4.6c0.1,0.4,0.2,0.7,0.2,1.1l0,0c0.1-0.4,0.2-0.8,0.3-1.1l1.4-4.6H17v7.7H16.9z
		 M24,17.3c-0.7,0.4-1.5,0.7-2.5,0.7c-1.1,0-2-0.3-2.6-1S18,15.4,18,14.2s0.3-2.2,1-3s1.6-1.1,2.8-1.1c0.7,0,1.4,0.1,1.9,0.3V12
		c-0.5-0.3-1.2-0.5-1.9-0.5c-0.6,0-1.2,0.2-1.6,0.7s-0.6,1.1-0.6,1.9c0,0.8,0.2,1.4,0.5,1.8c0.4,0.4,0.8,0.6,1.5,0.6
		c0.4,0,0.7-0.1,0.9-0.2v-1.5h-1.4v-1.4H24V17.3z"/>
	<g class="st0">
		<path class="Blue" d="M27,8H3C2.4,8,2,8.4,2,9v10c0,0.6,0.4,1,1,1h24c0.6,0,1-0.4,1-1V9C28,8.4,27.6,8,27,8z M7.5,17.9H6v-7.7h1.5
			V17.9z M16.9,17.9h-1.5v-4.6c0-0.5,0-1,0.1-1.6l0,0c-0.1,0.5-0.2,0.8-0.2,1l-1.6,5.2h-1.3l-1.6-5.2c0-0.1-0.1-0.5-0.2-1.1l0,0
			c0,0.8,0.1,1.4,0.1,2v4.3H9.3v-7.7h2.2l1.4,4.6c0.1,0.4,0.2,0.7,0.2,1.1l0,0c0.1-0.4,0.2-0.8,0.3-1.1l1.4-4.6H17v7.7H16.9z
			 M24,17.3c-0.7,0.4-1.5,0.7-2.5,0.7c-1.1,0-2-0.3-2.6-1S18,15.4,18,14.2s0.3-2.2,1-3s1.6-1.1,2.8-1.1c0.7,0,1.4,0.1,1.9,0.3V12
			c-0.5-0.3-1.2-0.5-1.9-0.5c-0.6,0-1.2,0.2-1.6,0.7s-0.6,1.1-0.6,1.9c0,0.8,0.2,1.4,0.5,1.8c0.4,0.4,0.8,0.6,1.5,0.6
			c0.4,0,0.7-0.1,0.9-0.2v-1.5h-1.4v-1.4H24V17.3z"/>
	</g>
</g>
<g id="Layer_2">
</g>
</svg>
