<?xml version="1.0" encoding="utf-8"?>
<!-- Generator: Adobe Illustrator 23.0.6, SVG Export Plug-In . SVG Version: 6.00 Build 0)  -->
<svg version="1.1" xmlns="http://www.w3.org/2000/svg" xmlns:xlink="http://www.w3.org/1999/xlink" x="0px" y="0px"
	 viewBox="0 0 32 32" style="enable-background:new 0 0 32 32;" xml:space="preserve">
<style type="text/css">
	.Red{fill:#D11C1C;}
	.Blue{fill:#1177D7;}
	.Black{fill:#727272;}
	.st0{opacity:0.1;}
</style>
<g id="Layer_1">
	<path class="Black" d="M8,8"/>
	<polygon class="Blue" points="30,24 18,24 24,28 	"/>
	<path class="Blue" d="M18,26v5c0,0.6,0.4,1,1,1h10c0.6,0,1-0.4,1-1v-5l-6,4L18,26z"/>
	<path class="Black" d="M6,18H4v11c0,0.6,0.4,1,1,1h11v-2H6V18z"/>
	<path class="Black" d="M6,10V4h18v6h2V3c0-0.6-0.4-1-1-1H5C4.4,2,4,2.4,4,3v7H6z"/>
	<rect x="24" y="18" class="Black" width="2" height="4"/>
	<path class="Red" d="M8.3,11.6H7.6V14h0.6c0.9,0,1.3-0.4,1.3-1.2C9.5,12,9.1,11.6,8.3,11.6z"/>
	<path class="Red" d="M14.7,11.7h-0.8v4.9h0.8c0.7,0,2.2-0.9,2.2-2.5C16.9,12.6,15.4,11.7,14.7,11.7z"/>
	<path class="Red" d="M27,8H3C2.4,8,2,8.4,2,9v10c0,0.6,0.4,1,1,1h24c0.6,0,1-0.4,1-1V9C28,8.4,27.6,8,27,8z M10.5,14.6
		c-0.5,0.5-1.2,0.7-2.1,0.7H7.6V18H6v-7.7h2.5c1.8,0,2.7,0.8,2.7,2.5C11.2,13.5,11,14.2,10.5,14.6z M17.6,16.9
		C16.9,17.6,16,18,14.8,18h-2.5v-7.7h2.5c2.5,0,3.8,1.3,3.8,3.8C18.7,15.3,18.3,16.2,17.6,16.9z M24,11.7h-2.5v1.9h2.3V15h-2.3v3
		h-1.6v-7.7H24V11.7z"/>
	<g class="st0">
		<path class="Black" d="M8.3,11.6H7.6V14h0.6c0.9,0,1.3-0.4,1.3-1.2C9.5,12,9.1,11.6,8.3,11.6z"/>
		<path class="Black" d="M14.7,11.7h-0.8v4.9h0.8c0.7,0,2.2-0.9,2.2-2.5C16.9,12.6,15.4,11.7,14.7,11.7z"/>
		<path class="Black" d="M27,8H3C2.4,8,2,8.4,2,9v10c0,0.6,0.4,1,1,1h24c0.6,0,1-0.4,1-1V9C28,8.4,27.6,8,27,8z M10.5,14.6
			c-0.5,0.5-1.2,0.7-2.1,0.7H7.6V18H6v-7.7h2.5c1.8,0,2.7,0.8,2.7,2.5C11.2,13.5,11,14.2,10.5,14.6z M17.6,16.9
			C16.9,17.6,16,18,14.8,18h-2.5v-7.7h2.5c2.5,0,3.8,1.3,3.8,3.8C18.7,15.3,18.3,16.2,17.6,16.9z M24,11.7h-2.5v1.9h2.3V15h-2.3v3
			h-1.6v-7.7H24V11.7z"/>
	</g>
</g>
<g id="Layer_2">
</g>
</svg>
