<?xml version="1.0" encoding="utf-8"?>
<!-- Generator: Adobe Illustrator 23.0.6, SVG Export Plug-In . SVG Version: 6.00 Build 0)  -->
<svg version="1.1" xmlns="http://www.w3.org/2000/svg" xmlns:xlink="http://www.w3.org/1999/xlink" x="0px" y="0px"
	 viewBox="0 0 32 32" style="enable-background:new 0 0 32 32;" xml:space="preserve">
<style type="text/css">
	.Blue{fill:#1177D7;}
	.Black{fill:#727272;}
	.White{fill:#FFFFFF;}
	.st0{opacity:0.2;}
</style>
<g id="Layer_1">
	<path class="Black" d="M8,8"/>
	<polygon class="Blue" points="30,24 18,24 24,28 	"/>
	<path class="Blue" d="M18,26v5c0,0.6,0.4,1,1,1h10c0.6,0,1-0.4,1-1v-5l-6,4L18,26z"/>
	<path class="Black" d="M6,18H4v11c0,0.6,0.4,1,1,1h11v-2H6V18z"/>
	<path class="Black" d="M6,10V4h18v6h2V3c0-0.6-0.4-1-1-1H5C4.4,2,4,2.4,4,3v7H6z"/>
	<rect x="24" y="18" class="Black" width="2" height="4"/>
	<path class="Black" d="M27,8H3C2.4,8,2,8.4,2,9v10c0,0.6,0.4,1,1,1h24c0.6,0,1-0.4,1-1V9C28,8.4,27.6,8,27,8z M9.5,11.7h-2V18H6
		v-6.3H4v-1.4h5.5V11.7z M16.2,18L15,15.5c0-0.1-0.1-0.3-0.1-0.5l0,0c0,0.1-0.1,0.3-0.2,0.5L13.5,18h-1.9l2.2-3.9l-2-3.9h1.9l1,2.3
		c0.1,0.2,0.1,0.4,0.2,0.7l0,0c0-0.2,0.1-0.4,0.2-0.7l1.1-2.3H18l-2,3.9l2.1,3.9H16.2z M26,11.7h-2V18h-1.6v-6.3h-2v-1.4H26V11.7z"
		/>
	<g class="st0">
		<path class="White" d="M27,8H3C2.4,8,2,8.4,2,9v10c0,0.6,0.4,1,1,1h24c0.6,0,1-0.4,1-1V9C28,8.4,27.6,8,27,8z M9.5,11.7h-2V18H6
			v-6.3H4v-1.4h5.5V11.7z M16.2,18L15,15.5c0-0.1-0.1-0.3-0.1-0.5l0,0c0,0.1-0.1,0.3-0.2,0.5L13.5,18h-1.9l2.2-3.9l-2-3.9h1.9l1,2.3
			c0.1,0.2,0.1,0.4,0.2,0.7l0,0c0-0.2,0.1-0.4,0.2-0.7l1.1-2.3H18l-2,3.9l2.1,3.9H16.2z M26,11.7h-2V18h-1.6v-6.3h-2v-1.4H26V11.7z"
			/>
	</g>
</g>
<g id="Layer_2">
</g>
</svg>
