<?xml version="1.0" encoding="utf-8"?>
<!-- Generator: Adobe Illustrator 23.0.6, SVG Export Plug-In . SVG Version: 6.00 Build 0)  -->
<svg version="1.1" xmlns="http://www.w3.org/2000/svg" xmlns:xlink="http://www.w3.org/1999/xlink" x="0px" y="0px"
	 viewBox="0 0 32 32" style="enable-background:new 0 0 32 32;" xml:space="preserve">
<style type="text/css">
	.Red{fill:#D11C1C;}
	.Blue{fill:#1177D7;}
	.Black{fill:#727272;}
	.st0{opacity:0.5;}
</style>
<g id="Layer_1">
	<path class="Black" d="M8,8"/>
	<polygon class="Blue" points="30,24 18,24 24,28 	"/>
	<path class="Blue" d="M18,26v5c0,0.6,0.4,1,1,1h10c0.6,0,1-0.4,1-1v-5l-6,4L18,26z"/>
	<path class="Black" d="M6,18H4v11c0,0.6,0.4,1,1,1h11v-2H6V18z"/>
	<path class="Black" d="M6,10V4h18v6h2V3c0-0.6-0.4-1-1-1H5C4.4,2,4,2.4,4,3v7H6z"/>
	<rect x="24" y="18" class="Black" width="2" height="4"/>
	<path class="Blue" d="M8.7,12H7.9v2.1h0.8c0.4,0,1.2-0.3,1.2-1.1C9.9,12.3,9.5,12,8.7,12z"/>
	<path class="Blue" d="M27,8H3C2.4,8,2,8.4,2,9v10c0,0.6,0.4,1,1,1h24c0.6,0,1-0.4,1-1V9C28,8.4,27.6,8,27,8z M10.6,18
		c0,0-1.7-3-2.4-3H7.9v3H6.1v-7.7h2.8c1.9,0,2.8,0.7,2.8,2.1c0,0.3,0,0.6-0.1,0.8c-0.4,1-0.8,1.1-1.6,1.3l0,0c1,0.7,2.7,3.5,2.7,3.5
		H10.6z M18.5,11.7h-2.2V18h-1.7v-6.3h-2.2v-1.4h6.1C18.5,10.3,18.5,11.7,18.5,11.7z M24,11.7h-2.7v1.9h2.5V15h-2.5v3h-1.7v-7.7H24
		V11.7z"/>
	<g class="st0">
		<path class="Red" d="M8.7,12H7.9v2.1h0.8c0.4,0,1.2-0.3,1.2-1.1C9.9,12.3,9.5,12,8.7,12z"/>
		<path class="Red" d="M27,8H3C2.4,8,2,8.4,2,9v10c0,0.6,0.4,1,1,1h24c0.6,0,1-0.4,1-1V9C28,8.4,27.6,8,27,8z M10.6,18
			c0,0-1.7-3-2.4-3H7.9v3H6.1v-7.7h2.8c1.9,0,2.8,0.7,2.8,2.1c0,0.3,0,0.6-0.1,0.8c-0.4,1-0.8,1.1-1.6,1.3l0,0
			c1,0.7,2.7,3.5,2.7,3.5H10.6z M18.5,11.7h-2.2V18h-1.7v-6.3h-2.2v-1.4h6.1C18.5,10.3,18.5,11.7,18.5,11.7z M24,11.7h-2.7v1.9h2.5
			V15h-2.5v3h-1.7v-7.7H24V11.7z"/>
	</g>
</g>
<g id="Layer_2">
</g>
</svg>
