<?xml version="1.0" encoding="utf-8"?>
<!-- Generator: Adobe Illustrator 23.0.6, SVG Export Plug-In . SVG Version: 6.00 Build 0)  -->
<svg version="1.1" xmlns="http://www.w3.org/2000/svg" xmlns:xlink="http://www.w3.org/1999/xlink" x="0px" y="0px"
	 viewBox="0 0 32 32" style="enable-background:new 0 0 32 32;" xml:space="preserve">
<style type="text/css">
	.Blue{fill:#1177D7;}
	.Black{fill:#727272;}
</style>
<g id="Layer_1">
	<path class="Black" d="M8,8"/>
	<polygon class="Blue" points="30,24 18,24 24,28 	"/>
	<path class="Blue" d="M18,26v5c0,0.6,0.4,1,1,1h10c0.6,0,1-0.4,1-1v-5l-6,4L18,26z"/>
	<path class="Black" d="M6,18H4v11c0,0.6,0.4,1,1,1h11v-2H6V18z"/>
	<path class="Black" d="M6,10V4h18v6h2V3c0-0.6-0.4-1-1-1H5C4.4,2,4,2.4,4,3v7H6z"/>
	<rect x="24" y="18" class="Black" width="2" height="4"/>
	<path class="Blue" d="M27,8h-1h-2H6H4H3C2.4,8,2,8.4,2,9v10c0,0.6,0.4,1,1,1h1h2h18h2h1c0.6,0,1-0.4,1-1V9C28,8.4,27.6,8,27,8z
		 M10.9,12c-0.5-0.3-1-0.5-1.6-0.5C8.6,11.5,7,12.2,7,14c0,1.7,1.5,2.5,2.2,2.5c0.6,0,1.2-0.2,1.7-0.5v1.6c-0.5,0.3-1.2,0.4-2,0.4
		c-1.1,0-3.5-0.8-3.5-3.7c0-3.1,2.3-4.3,3.7-4.3c0.7,0,1.3,0.1,1.8,0.3C10.9,10.3,10.9,12,10.9,12z M14.6,18c-0.4,0-0.8,0-1.1-0.1
		c-0.4-0.1-0.7-0.2-0.9-0.3v-1.7c0.3,0.3,0.6,0.5,0.9,0.6c1.1,0.4,2.2,0,2.2-0.6c0-1.5-3.1-1.7-3.1-3.5c0-0.8,0.7-2.2,2.8-2.2
		c0.4,0,0.7,0,1,0.1c0.3,0,0.6,0.1,0.8,0.2v1.6c-0.1-0.1-0.4-0.3-0.5-0.3c-0.6-0.2-1.2-0.4-1.7-0.3c-0.6,0.1-0.8,0.9-0.4,1.3
		c0.6,0.6,1.5,1.1,2,1.5C18,15.5,17.7,18,14.6,18z M24,13.2l-1.5,4.7h-1.8L18.3,10H20l1.5,5.5c0.1,0.3,0.1,0.5,0.1,0.5
		s0.1-0.2,0.2-0.5l1.5-5.5H24h1L24,13.2z"/>
</g>
<g id="Layer_2">
</g>
</svg>
