<?xml version="1.0" encoding="utf-8"?>
<!-- Generator: Adobe Illustrator 23.0.6, SVG Export Plug-In . SVG Version: 6.00 Build 0)  -->
<svg version="1.1" xmlns="http://www.w3.org/2000/svg" xmlns:xlink="http://www.w3.org/1999/xlink" x="0px" y="0px"
	 viewBox="0 0 32 32" style="enable-background:new 0 0 32 32;" xml:space="preserve">
<style type="text/css">
	.Red{fill:#D11C1C;}
	.Blue{fill:#1177D7;}
	.Black{fill:#727272;}
	.Yellow{fill:#FFB115;}
	.st0{opacity:0.5;}
</style>
<g id="Layer_1">
	<path class="Black" d="M8,8"/>
	<polygon class="Blue" points="30,24 18,24 24,28 	"/>
	<path class="Blue" d="M18,26v5c0,0.6,0.4,1,1,1h10c0.6,0,1-0.4,1-1v-5l-6,4L18,26z"/>
	<path class="Black" d="M6,18H4v11c0,0.6,0.4,1,1,1h11v-2H6V18z"/>
	<path class="Black" d="M6,10V4h18v6h2V3c0-0.6-0.4-1-1-1H5C4.4,2,4,2.4,4,3v7H6z"/>
	<rect x="24" y="18" class="Black" width="2" height="4"/>
	<path class="Yellow" d="M27,8H3C2.4,8,2,8.4,2,9v10c0,0.6,0.4,1,1,1h24c0.6,0,1-0.4,1-1V9C28,8.4,27.6,8,27,8z M11.9,18h-1.5v-4.6
		c0-0.5,0-1,0.1-1.6l0,0c-0.1,0.5-0.2,0.8-0.2,1L8.5,18H7.3l-1.7-5.2c0-0.1-0.1-0.5-0.2-1.1l0,0c0,0.8,0.1,1.4,0.1,2V18H4v-7.7h2.3
		l1.4,4.6c0.1,0.4,0.2,0.7,0.2,1.1l0,0c0.1-0.4,0.2-0.8,0.3-1.1l1.4-4.6h2.2V18H11.9z M19.5,18H18v-3.1h-2.9V18h-1.6v-7.7h1.6v3.1
		H18v-3.1h1.6V18H19.5z M26,11.7h-2V18h-1.6v-6.3h-2v-1.4H26V11.7z"/>
	<g class="st0">
		<path class="Red" d="M27,8H3C2.4,8,2,8.4,2,9v10c0,0.6,0.4,1,1,1h24c0.6,0,1-0.4,1-1V9C28,8.4,27.6,8,27,8z M11.9,18h-1.5v-4.6
			c0-0.5,0-1,0.1-1.6l0,0c-0.1,0.5-0.2,0.8-0.2,1L8.5,18H7.3l-1.7-5.2c0-0.1-0.1-0.5-0.2-1.1l0,0c0,0.8,0.1,1.4,0.1,2V18H4v-7.7h2.3
			l1.4,4.6c0.1,0.4,0.2,0.7,0.2,1.1l0,0c0.1-0.4,0.2-0.8,0.3-1.1l1.4-4.6h2.2V18H11.9z M19.5,18H18v-3.1h-2.9V18h-1.6v-7.7h1.6v3.1
			H18v-3.1h1.6V18H19.5z M26,11.7h-2V18h-1.6v-6.3h-2v-1.4H26V11.7z"/>
	</g>
</g>
<g id="Layer_2">
</g>
</svg>
