<?xml version="1.0" encoding="utf-8"?>
<!-- Generator: Adobe Illustrator 24.1.3, SVG Export Plug-In . SVG Version: 6.00 Build 0)  -->
<svg version="1.1" id="Layer_1" xmlns="http://www.w3.org/2000/svg" xmlns:xlink="http://www.w3.org/1999/xlink" x="0px" y="0px"
	 viewBox="0 0 32 32" style="enable-background:new 0 0 32 32;" xml:space="preserve">
<style type="text/css">
	.Black{fill:#737374;}
	.Yellow{fill:#FCB01B;}
	.Green{fill:#129C49;}
	.Blue{fill:#387CB7;}
	.Red{fill:#D02127;}
	.White{fill:#FFFFFF;}
	.st0{opacity:0.5;}
	.st1{opacity:0.75;}
	.st2{opacity:0.25;}
	.st3{display:none;fill:#737374;}
</style>
<path class="Black" d="M29,0H1C0.5,0,0,0.5,0,1v28c0,0.5,0.5,1,1,1h28c0.5,0,1-0.5,1-1V1C30,0.5,29.5,0,29,0z M28,28H2V2h26V28z"/>
<rect x="4" y="4" class="Blue" width="10" height="10"/>
<polygon class="Blue" points="10,20 10,16 8,16 8,20 4,20 9,25 14,20 "/>
<polygon class="Blue" points="25,9 20,4 20,8 16,8 16,10 20,10 20,14 "/>
</svg>
