<?xml version="1.0" encoding="utf-8"?>
<!-- Generator: Adobe Illustrator 24.1.3, SVG Export Plug-In . SVG Version: 6.00 Build 0)  -->
<svg version="1.1" id="Layer_1" xmlns="http://www.w3.org/2000/svg" xmlns:xlink="http://www.w3.org/1999/xlink" x="0px" y="0px"
	 viewBox="0 0 20 20" style="enable-background:new 0 0 20 20;" xml:space="preserve">
<style type="text/css">
	.White{fill:#FFFFFF;}
	.Yellow{fill:#FCB01B;}
</style>
<path class="White" d="M10,1C6.1,1,3,2.8,3,5v10c0,2.2,3.1,4,7,4s7-1.8,7-4V5C17,2.8,13.9,1,10,1z"/>
<path class="Yellow" d="M10,3C7.2,3,5,3.9,5,5v2c0,1.1,2.2,2,5,2s5-0.9,5-2V5C15,3.9,12.8,3,10,3z"/>
<path class="Yellow" d="M10,10c-2.3,0-4.3-0.6-4.8-1.5C5.1,8.7,5,8.8,5,9v2c0,1.1,2.2,2,5,2s5-0.9,5-2V9c0-0.2-0.1-0.3-0.2-0.5
	C14.3,9.4,12.3,10,10,10z"/>
<path class="Yellow" d="M10,14c-2.3,0-4.3-0.6-4.8-1.5C5.1,12.7,5,12.8,5,13v2c0,1.1,2.2,2,5,2s5-0.9,5-2v-2c0-0.2-0.1-0.3-0.2-0.5
	C14.3,13.4,12.3,14,10,14z"/>
</svg>
