<?xml version="1.0" encoding="utf-8"?>
<!-- Generator: Adobe Illustrator 24.1.3, SVG Export Plug-In . SVG Version: 6.00 Build 0)  -->
<svg version="1.1" id="Layer_1" xmlns="http://www.w3.org/2000/svg" xmlns:xlink="http://www.w3.org/1999/xlink" x="0px" y="0px"
	 viewBox="0 0 32 32" style="enable-background:new 0 0 32 32;" xml:space="preserve">
<style type="text/css">
	.Black{fill:#737374;}
	.Yellow{fill:#FCB01B;}
	.Green{fill:#129C49;}
	.Blue{fill:#387CB7;}
	.Red{fill:#D02127;}
	.White{fill:#FFFFFF;}
	.st0{opacity:0.5;}
	.st1{opacity:0.75;}
	.st2{opacity:0.25;}
	.st3{display:none;fill:#737374;}
</style>
<path class="Black" d="M4,26H2V6h2V26z M28,6v8h-4v12h2V16h4V6H28z M18,6v13c0,0.6-0.4,1-1,1h0c-0.6,0-1-0.4-1-1v-6c0-1.7-1.3-3-3-3
	h0c-1.7,0-3,1.3-3,3v13h2V13c0-0.6,0.4-1,1-1h0c0.6,0,1,0.4,1,1v6c0,1.7,1.3,3,3,3h0c1.7,0,3-1.3,3-3V6H18z"/>
<path class="Blue" d="M5,2H1C0.5,2,0,2.5,0,3v4c0,0.5,0.5,1,1,1h4c0.5,0,1-0.5,1-1V3C6,2.5,5.5,2,5,2z M4,6H2V4h2V6z M21,2h-4
	c-0.5,0-1,0.5-1,1v4c0,0.5,0.5,1,1,1h4c0.5,0,1-0.5,1-1V3C22,2.5,21.5,2,21,2z M20,6h-2V4h2V6z M31,2h-4c-0.5,0-1,0.5-1,1v4
	c0,0.5,0.5,1,1,1h4c0.5,0,1-0.5,1-1V3C32,2.5,31.5,2,31,2z M30,6h-2V4h2V6z M27,24h-4c-0.5,0-1,0.5-1,1v4c0,0.5,0.5,1,1,1h4
	c0.5,0,1-0.5,1-1v-4C28,24.5,27.5,24,27,24z M26,28h-2v-2h2V28z M13,24H9c-0.5,0-1,0.5-1,1v4c0,0.5,0.5,1,1,1h4c0.5,0,1-0.5,1-1v-4
	C14,24.5,13.5,24,13,24z M12,28h-2v-2h2V28z M5,24H1c-0.5,0-1,0.5-1,1v4c0,0.5,0.5,1,1,1h4c0.5,0,1-0.5,1-1v-4C6,24.5,5.5,24,5,24z
	 M4,28H2v-2h2V28z"/>
</svg>
