<?xml version="1.0" encoding="utf-8"?>
<!-- Generator: Adobe Illustrator 24.1.3, SVG Export Plug-In . SVG Version: 6.00 Build 0)  -->
<svg version="1.1" id="Layer_1" xmlns="http://www.w3.org/2000/svg" xmlns:xlink="http://www.w3.org/1999/xlink" x="0px" y="0px"
	 viewBox="0 0 32 32" style="enable-background:new 0 0 32 32;" xml:space="preserve">
<style type="text/css">
	.Black{fill:#737374;}
	.Yellow{fill:#FCB01B;}
	.Green{fill:#129C49;}
	.Blue{fill:#387CB7;}
	.Red{fill:#D02127;}
	.White{fill:#FFFFFF;}
	.st0{opacity:0.5;}
	.st1{opacity:0.75;}
	.st2{opacity:0.25;}
	.st3{display:none;fill:#737374;}
</style>
<g class="st0">
	<path class="Black" d="M4,12H2V2h6V0l3,3L8,6V4H4V12z M4,26v-4h2l-3-3l-3,3h2v6h10v-2H4z M28,8V2H18v2h8v4h-2l3,3l3-3H28z M28,18
		h-2v8h-4v-2l-3,3l3,3v-2h6V18z"/>
</g>
<path class="Blue" d="M5,12H1c-0.5,0-1,0.5-1,1v4c0,0.5,0.5,1,1,1h4c0.5,0,1-0.5,1-1v-4C6,12.5,5.5,12,5,12z M4,16H2v-2h2V16z"/>
<path class="Blue" d="M17,0h-4c-0.5,0-1,0.5-1,1v4c0,0.5,0.5,1,1,1h4c0.5,0,1-0.5,1-1V1C18,0.5,17.5,0,17,0z M16,4h-2V2h2V4z"/>
<path class="Blue" d="M29,12h-4c-0.5,0-1,0.5-1,1v4c0,0.5,0.5,1,1,1h4c0.5,0,1-0.5,1-1v-4C30,12.5,29.5,12,29,12z M28,16h-2v-2h2V16
	z"/>
<path class="Blue" d="M17,24h-4c-0.5,0-1,0.5-1,1v4c0,0.5,0.5,1,1,1h4c0.5,0,1-0.5,1-1v-4C18,24.5,17.5,24,17,24z M16,28h-2v-2h2V28
	z"/>
</svg>
