<?xml version="1.0" encoding="utf-8"?>
<!-- Generator: Adobe Illustrator 24.1.3, SVG Export Plug-In . SVG Version: 6.00 Build 0)  -->
<svg version="1.1" id="Layer_1" xmlns="http://www.w3.org/2000/svg" xmlns:xlink="http://www.w3.org/1999/xlink" x="0px" y="0px"
	 viewBox="0 0 32 32" style="enable-background:new 0 0 32 32;" xml:space="preserve">
<style type="text/css">
	.Black{fill:#737374;}
	.Yellow{fill:#FCB01B;}
	.Green{fill:#129C49;}
	.Blue{fill:#387CB7;}
	.Red{fill:#D02127;}
	.White{fill:#FFFFFF;}
	.st0{opacity:0.5;}
	.st1{opacity:0.75;}
	.st2{opacity:0.25;}
	.st3{display:none;fill:#737374;}
</style>
<path class="Blue" d="M27,2H1C0.5,2,0,2.5,0,3v7h28V3C28,2.5,27.5,2,27,2z"/>
<g class="st0">
	<path class="Black" d="M26,16.2V10h2v6.9C27.4,16.6,26.7,16.4,26,16.2z M14.1,24.7L13.9,24H2V10H0v15c0,0.5,0.5,1,1,1h13.8
		C14.4,25.3,14.2,24.8,14.1,24.7z"/>
</g>
<path class="Black" d="M17.6,26.6C16.5,25.3,16,24,16,24s2.3-6,8-6c0.7,0,1.4,0.1,2,0.3L24.2,20c-0.1,0-0.1,0-0.2,0
	c-2.2,0-4,1.8-4,4c0,0.1,0,0.1,0,0.2L17.6,26.6z M32,24c0,0-2.3,6-8,6c-1.3,0-2.4-0.3-3.4-0.8L17.8,32L16,30.2L30.2,16l1.8,1.8
	l-2.5,2.5C31.2,22,32,24,32,24z M28,24c0-0.6-0.2-1.2-0.4-1.8L26,23.8c0,0.1,0,0.1,0,0.2c0,1.1-0.9,2-2,2c-0.1,0-0.1,0-0.2,0
	l-1.6,1.6c0.5,0.3,1.1,0.4,1.8,0.4C26.2,28,28,26.2,28,24z"/>
</svg>
