<?xml version="1.0" encoding="utf-8"?>
<!-- Generator: Adobe Illustrator 19.1.0, SVG Export Plug-In . SVG Version: 6.00 Build 0)  -->
<svg version="1.1" id="Layer_1" xmlns="http://www.w3.org/2000/svg" xmlns:xlink="http://www.w3.org/1999/xlink" x="0px" y="0px"
	 viewBox="0 0 32 32" enable-background="new 0 0 32 32" xml:space="preserve">
<path opacity="0.3" fill="#010101" enable-background="new    " d="M4,0v5.2l8.4,12.6l-1.4,3l1,3.2l4-2.4l4,2.4l1-3.2l-1.4-3L28,5.2
	V0L16,14L4,0z"/>
<path opacity="0.3" fill="#010101" enable-background="new    " d="M16,16c1.1,0,2,0.9,2,2s-0.9,2-2,2s-2-0.9-2-2S14.9,16,16,16z"/>
<g>
	<path fill="#417BB6" d="M8,20c-3.3,0-6,2.7-6,6s2.7,6,6,6s6-2.7,6-6S11.3,20,8,20z M8,29c-1.6,0-3-1.3-3-3s1.4-3,3-3s3,1.3,3,3
		S9.6,29,8,29z"/>
	<path fill="#417BB6" d="M24,20c-3.3,0-6,2.7-6,6s2.7,6,6,6s6-2.7,6-6S27.3,20,24,20z M24,29c-1.7,0-3-1.3-3-3s1.3-3,3-3s3,1.3,3,3
		S25.7,29,24,29z"/>
</g>
</svg>
