<?xml version="1.0" encoding="utf-8"?>
<!-- Generator: Adobe Illustrator 24.1.3, SVG Export Plug-In . SVG Version: 6.00 Build 0)  -->
<svg version="1.1" id="Layer_1" xmlns="http://www.w3.org/2000/svg" xmlns:xlink="http://www.w3.org/1999/xlink" x="0px" y="0px"
	 viewBox="0 0 32 32" style="enable-background:new 0 0 32 32;" xml:space="preserve">
<style type="text/css">
	.Black{fill:#737374;}
	.Yellow{fill:#FCB01B;}
	.Green{fill:#129C49;}
	.Blue{fill:#387CB7;}
	.Red{fill:#D02127;}
	.White{fill:#FFFFFF;}
	.st0{opacity:0.5;}
	.st1{opacity:0.75;}
	.st2{opacity:0.25;}
	.st3{display:none;fill:#737374;}
</style>
<path class="Blue" d="M29,0h-4c-0.5,0-1,0.4-1,1v4c0,0.6,0.5,1,1,1h4c0.5,0,1-0.4,1-1V1C30,0.4,29.5,0,29,0z M28,4h-2V2h2V4z"/>
<path class="Blue" d="M21,0h-4c-0.5,0-1,0.4-1,1v4c0,0.6,0.5,1,1,1h4c0.5,0,1-0.4,1-1V1C22,0.4,21.5,0,21,0z M20,4h-2V2h2V4z"/>
<path class="Blue" d="M13,0H9C8.5,0,8,0.4,8,1v4c0,0.6,0.5,1,1,1h4c0.5,0,1-0.4,1-1V1C14,0.4,13.5,0,13,0z M12,4h-2V2h2V4z"/>
<path class="Blue" d="M13,12H9c-0.5,0-1,0.4-1,1v4c0,0.6,0.5,1,1,1h4c0.5,0,1-0.4,1-1v-4C14,12.4,13.5,12,13,12z M12,16h-2v-2h2V16z
	"/>
<path class="Blue" d="M25,12h-4c-0.5,0-1,0.4-1,1v4c0,0.6,0.5,1,1,1h4c0.5,0,1-0.4,1-1v-4C26,12.4,25.5,12,25,12z M24,16h-2v-2h2V16
	z"/>
<path class="Blue" d="M19,24h-4c-0.5,0-1,0.4-1,1v4c0,0.6,0.5,1,1,1h4c0.5,0,1-0.4,1-1v-4C20,24.4,19.5,24,19,24z M18,28h-2v-2h2V28
	z"/>
<polygon class="Black" points="3,1 0,4 2,4 2,30 4,30 4,4 6,4 "/>
<g class="st0">
	<path class="Black" d="M12,12h-2V6h2V12z M22,20H12v-2h-2v4h6v2h2v-2h6v-4h-2V20z M26,6v2h-6V6h-2v4h4v2h2v-2h4V6H26z"/>
</g>
</svg>
