<?xml version="1.0" encoding="utf-8"?>
<!-- Generator: Adobe Illustrator 24.1.3, SVG Export Plug-In . SVG Version: 6.00 Build 0)  -->
<svg version="1.1" id="Layer_1" xmlns="http://www.w3.org/2000/svg" xmlns:xlink="http://www.w3.org/1999/xlink" x="0px" y="0px"
	 viewBox="0 0 32 32" style="enable-background:new 0 0 32 32;" xml:space="preserve">
<style type="text/css">
	.Black{fill:#737374;}
	.Yellow{fill:#FCB01B;}
	.Green{fill:#129C49;}
	.Blue{fill:#387CB7;}
	.Red{fill:#D02127;}
	.White{fill:#FFFFFF;}
	.st0{opacity:0.5;}
	.st1{opacity:0.75;}
	.st2{opacity:0.25;}
	.st3{display:none;fill:#737374;}
</style>
<path class="Black" d="M4,6V3c0-0.5,0.5-1,1-1h22c0.5,0,1,0.5,1,1v3h-2V4H6v2H4z M26,18v10H6V18H4v11c0,0.5,0.5,1,1,1h22
	c0.5,0,1-0.5,1-1V18H26z"/>
<path class="Yellow" d="M8.3,13.5v0.2c0,0.8-0.5,0.9-0.9,0.9H5.8v-2h1.6C7.8,12.6,8.3,12.6,8.3,13.5z M8,10.4v-0.2
	c0-0.7-0.3-0.8-0.7-0.8H5.8v1.8h1.5C7.6,11.2,8,11.1,8,10.4z M26.1,9.4h-1.4v2.3h1.4c0.6,0,1-0.1,1-1.2C27.1,9.5,26.7,9.4,26.1,9.4z
	 M32,6v12H0V6H32z M10,13.4c0-0.8-0.5-1.4-1.2-1.7v0c0.6-0.2,0.9-0.7,0.9-1.4v-0.2c0-2-1.2-2.1-2.5-2.1H4.1H3.2v1.3h0.9v5.4H3.2V16
	h0.9h3.4c1.2,0,2.6-0.2,2.6-2.2V13.4z M21.2,14.7h-0.7l-0.4-5.4H21V8h-3L16,12.8L14.2,8h-3.1v1.3H12l-0.4,5.4h-0.7V16h3.3v-1.3h-0.8
	l0.3-3.8h0.1l1.7,4.2h1.4l1.8-4.6h0l0.3,4.2H18V16h3.3V14.7z M28.8,10.6c0-2.3-1.1-2.6-2.7-2.6H23h-0.9v1.3H23v5.4h-0.9V16H23h2.6
	v-1.3h-0.9v-1.6h1.4C27.8,13.1,28.8,12.8,28.8,10.6z"/>
</svg>
