<?xml version="1.0" encoding="utf-8"?>
<!-- Generator: Adobe Illustrator 24.1.3, SVG Export Plug-In . SVG Version: 6.00 Build 0)  -->
<svg version="1.1" id="Layer_1" xmlns="http://www.w3.org/2000/svg" xmlns:xlink="http://www.w3.org/1999/xlink" x="0px" y="0px"
	 viewBox="0 0 32 32" style="enable-background:new 0 0 32 32;" xml:space="preserve">
<style type="text/css">
	.Black{fill:#737374;}
	.Yellow{fill:#FCB01B;}
	.Green{fill:#129C49;}
	.Blue{fill:#387CB7;}
	.Red{fill:#D02127;}
	.White{fill:#FFFFFF;}
	.st0{opacity:0.5;}
	.st1{opacity:0.75;}
	.st2{opacity:0.25;}
	.st3{display:none;fill:#737374;}
</style>
<path class="Black" d="M4,6V3c0-0.5,0.5-1,1-1h22c0.5,0,1,0.5,1,1v3h-2V4H6v2H4z M26,18v10H6V18H4v11c0,0.5,0.5,1,1,1h22
	c0.5,0,1-0.5,1-1V18H26z"/>
<path class="Red" d="M2,6v12h28V6H2z M13.5,15.2l-0.2,0.1c-0.7,0.4-1.7,0.8-3,0.8C10,16.1,9.6,16,9.2,16c-2.1-0.5-2.2-2.1-2.2-3V11
	c0-0.9,0.1-2.5,2.2-3c0.5-0.1,1-0.1,1.4-0.1c0.8,0,1.6,0.1,2.4,0.2v2.1h-1.5V9.3c-0.2,0-0.4,0-0.6,0c-1,0-2.2,0-2.2,1.7v1.9
	c0,0.5,0.1,1.4,0.9,1.6c0.2,0.1,0.6,0.1,0.8,0.1c0.5,0,1.1-0.1,1.5-0.3V13h-1.6v-1.3h3.2V15.2z M17.9,9.3H17v5.4h0.9V16h-2.6h-0.9
	v-1.3h0.9V9.3h-0.9V8h0.9H17h0.9V9.3z M25.1,10.2h-1.5V9.4h-2.1v1.9H24v1.4h-2.6v2h1V16h-3.6v-1.3h0.9V9.3h-0.9V8h6.3V10.2z"/>
</svg>
