<?xml version="1.0" encoding="utf-8"?>
<!-- Generator: Adobe Illustrator 24.1.3, SVG Export Plug-In . SVG Version: 6.00 Build 0)  -->
<svg version="1.1" id="Layer_1" xmlns="http://www.w3.org/2000/svg" xmlns:xlink="http://www.w3.org/1999/xlink" x="0px" y="0px"
	 viewBox="0 0 32 32" style="enable-background:new 0 0 32 32;" xml:space="preserve">
<style type="text/css">
	.Black{fill:#737374;}
	.Yellow{fill:#FCB01B;}
	.Green{fill:#129C49;}
	.Blue{fill:#387CB7;}
	.Red{fill:#D02127;}
	.White{fill:#FFFFFF;}
	.st0{opacity:0.5;}
	.st1{opacity:0.75;}
	.st2{opacity:0.25;}
	.st3{display:none;fill:#737374;}
</style>
<path class="Black" d="M4,6V3c0-0.5,0.5-1,1-1h22c0.5,0,1,0.5,1,1v3h-2V4H6v2H4z M26,18v10H6V18H4v11c0,0.5,0.5,1,1,1h22
	c0.5,0,1-0.5,1-1V18H26z"/>
<path class="Blue" d="M16.7,10.6c0,1-0.4,1.2-1,1.2h-1.4V9.4h1.4C16.3,9.4,16.7,9.5,16.7,10.6z M30,6v12H2V6H30z M11,8H7.2v1.3h1.2
	v4.5c0,0.8-0.9,0.8-2.1,0.9v1.4c1.8,0,3.8-0.2,3.8-2.2V9.3H11V8z M18.4,10.6c0-2.3-1.1-2.6-2.7-2.6h-3.2h-0.9v1.3h0.9v5.4h-0.9V16
	h0.9h2.6v-1.3h-0.9v-1.6h1.4C17.4,13.1,18.4,12.9,18.4,10.6z M25.8,11.7h-3.2V13h1.6v1.4c-0.4,0.2-1,0.3-1.5,0.3
	c-0.3,0-0.6-0.1-0.8-0.1c-0.8-0.2-0.9-1.1-0.9-1.6V11c0-1.7,1.3-1.7,2.2-1.7c0.1,0,0.3,0,0.6,0v0.9h1.5V8.1
	c-0.8-0.2-1.6-0.2-2.4-0.2c-0.5,0-0.9,0-1.4,0.1c-2.2,0.5-2.2,2.1-2.2,3v1.9c0,0.9,0.1,2.5,2.2,3c0.4,0.1,0.8,0.1,1.2,0.2
	c1.3,0,2.2-0.4,3-0.8l0.2-0.1V11.7z"/>
</svg>
