<?xml version="1.0" encoding="utf-8"?>
<!-- Generator: Adobe Illustrator 24.1.3, SVG Export Plug-In . SVG Version: 6.00 Build 0)  -->
<svg version="1.1" id="Layer_1" xmlns="http://www.w3.org/2000/svg" xmlns:xlink="http://www.w3.org/1999/xlink" x="0px" y="0px"
	 viewBox="0 0 32 32" style="enable-background:new 0 0 32 32;" xml:space="preserve">
<style type="text/css">
	.Black{fill:#737373;}
	.Blue{fill:#377CB5;}
</style>
<path class="Black" d="M4,6V3c0-0.5,0.5-1,1-1h22c0.5,0,1,0.5,1,1v3h-2V4H6v2H4z M26,18v10H6V18H4v11c0,0.5,0.5,1,1,1h22
	c0.5,0,1-0.5,1-1V18H26z"/>
<path class="Blue" d="M2,6v12h28V6H2z M8,16.1c-0.4,0-1.6-0.1-2.5-0.4v-2.1H7v1c0.5,0.1,0.8,0.1,1,0.1c0.9,0,1.4-0.2,1.4-0.8
	c0-0.5-0.2-0.7-0.6-0.9l-1.5-0.7c-1.1-0.6-1.7-1.1-1.7-2.3c0-1.8,1.1-2.2,3.1-2.2c0.4,0,1.4,0.1,2.2,0.3v2H9.4V9.3
	C9.1,9.3,8.8,9.3,8.7,9.3c-0.8,0-1.3,0.2-1.3,0.8c0,0.4,0.3,0.6,0.9,0.9l1.4,0.7c1,0.5,1.5,1.1,1.5,2.3C11.2,15.7,10,16.1,8,16.1z
	 M19.5,9.3h-0.7L16.4,16h-1.6l-2.4-6.7h-0.7V8H15v1.3h-0.8l1.4,4.3L17,9.3h-0.8V8h3.3V9.3z M26.5,15.2l-0.2,0.1
	c-0.7,0.4-1.7,0.8-3,0.8c-0.4,0-0.8-0.1-1.2-0.2c-2.1-0.5-2.2-2.1-2.2-3v-1.9c0-0.9,0.1-2.5,2.2-3c0.5-0.1,1-0.1,1.4-0.1
	c0.8,0,1.6,0.1,2.4,0.2v2.1h-1.5V9.3c-0.2,0-0.4,0-0.6,0c-1,0-2.2,0-2.2,1.7v1.9c0,0.5,0.1,1.4,0.9,1.6c0.2,0.1,0.6,0.1,0.8,0.1
	c0.5,0,1.1-0.1,1.5-0.3V13h-1.6v-1.3h3.2V15.2z"/>
</svg>
