<?xml version="1.0" encoding="utf-8"?>
<!-- Generator: Adobe Illustrator 24.1.3, SVG Export Plug-In . SVG Version: 6.00 Build 0)  -->
<svg version="1.1" id="Layer_1" xmlns="http://www.w3.org/2000/svg" xmlns:xlink="http://www.w3.org/1999/xlink" x="0px" y="0px"
	 viewBox="0 0 32 32" style="enable-background:new 0 0 32 32;" xml:space="preserve">
<style type="text/css">
	.Black{fill:#737374;}
	.Yellow{fill:#FCB01B;}
	.Green{fill:#129C49;}
	.Blue{fill:#387CB7;}
	.Red{fill:#D02127;}
	.White{fill:#FFFFFF;}
	.st0{opacity:0.5;}
	.st1{opacity:0.75;}
	.st2{opacity:0.25;}
	.st3{display:none;fill:#737374;}
</style>
<path class="Black" d="M23,2H9C8.5,2,8,2.5,8,3v24c0,0.5,0.5,1,1,1h14c0.5,0,1-0.5,1-1V3C24,2.5,23.5,2,23,2z M22,26H10V4h12V26z"/>
<polygon class="Blue" points="6,16 6,14 6,10 1,15 6,20 "/>
<polygon class="Blue" points="26,16 26,14 26,10 31,15 26,20 "/>
<g class="st0">
	<path class="Black" d="M20,10h-8V8h8V10z M20,12h-8v2h8V12z M20,16h-8v2h8V16z M20,20h-8v2h8V20z"/>
</g>
</svg>
