<?xml version="1.0" encoding="utf-8"?>
<!-- Generator: Adobe Illustrator 24.1.3, SVG Export Plug-In . SVG Version: 6.00 Build 0)  -->
<svg version="1.1" id="Layer_1" xmlns="http://www.w3.org/2000/svg" xmlns:xlink="http://www.w3.org/1999/xlink" x="0px" y="0px"
	 viewBox="0 0 32 32" style="enable-background:new 0 0 32 32;" xml:space="preserve">
<style type="text/css">
	.Black{fill:#737374;}
	.Yellow{fill:#FCB01B;}
	.Green{fill:#129C49;}
	.Blue{fill:#387CB7;}
	.Red{fill:#D02127;}
	.White{fill:#FFFFFF;}
	.st0{opacity:0.5;}
	.st1{opacity:0.75;}
	.st2{opacity:0.25;}
	.st3{display:none;fill:#737374;}
</style>
<circle class="Yellow" cx="17" cy="17" r="3"/>
<polygon class="Green" points="16,26 8,18 4,22 4,26 "/>
<g class="st0">
	<path class="Black" d="M0,8.2V3c0-0.5,0.5-1,1-1h21.1l2,2H2v4H1C0.7,8,0.3,8.1,0,8.2z M30,9.9V28h-4v1c0,0.3-0.1,0.7-0.2,1H31
		c0.5,0,1-0.5,1-1V11.9L30,9.9z"/>
</g>
<path class="Black" d="M23,10H1c-0.5,0-1,0.5-1,1v18c0,0.5,0.5,1,1,1h22c0.5,0,1-0.5,1-1V11C24,10.5,23.5,10,23,10z M22,28H2V12h20
	V28z"/>
<polygon class="Blue" points="24.9,2 27.8,4.8 24.3,8.3 25.7,9.7 29.2,6.2 32,9.1 32,2 "/>
</svg>
