<?xml version="1.0" encoding="utf-8"?>
<!-- Generator: Adobe Illustrator 24.1.3, SVG Export Plug-In . SVG Version: 6.00 Build 0)  -->
<svg version="1.1" id="Layer_1" xmlns="http://www.w3.org/2000/svg" xmlns:xlink="http://www.w3.org/1999/xlink" x="0px" y="0px"
	 viewBox="0 0 32 32" style="enable-background:new 0 0 32 32;" xml:space="preserve">
<style type="text/css">
	.Black{fill:#737374;}
	.Yellow{fill:#FCB01B;}
	.Green{fill:#129C49;}
	.Blue{fill:#387CB7;}
	.Red{fill:#D02127;}
	.White{fill:#FFFFFF;}
	.st0{opacity:0.5;}
	.st1{opacity:0.75;}
	.st2{opacity:0.25;}
	.st3{display:none;fill:#737374;}
</style>
<circle class="Yellow" cx="19" cy="11" r="3"/>
<g class="st1">
	<path class="Yellow" d="M20.6,22.4c0.2-0.2,0.5-0.4,0.9-0.4H28v-1c0-0.6-0.5-1-1-1h-5v-1c0-0.6-0.5-1-1-1h-4c-0.5,0-1,0.4-1,1v10
		c0,0.1,0,0.2,0.1,0.3L20.6,22.4z"/>
</g>
<path class="Yellow" d="M18,30l4-6h9c0.8,0,1.3,0.9,0.8,1.6l-2.7,4C29,29.8,28.7,30,28.3,30H18z"/>
<path class="Black" d="M14,26H2V6h24v12h2V5c0-0.5-0.5-1-1-1H1C0.5,4,0,4.5,0,5v22c0,0.5,0.5,1,1,1h13V26z"/>
<polygon class="Green" points="14,20 8,14 4,18 4,24 14,24 "/>
</svg>
