<?xml version="1.0" encoding="utf-8"?>
<!-- Generator: Adobe Illustrator 19.1.0, SVG Export Plug-In . SVG Version: 6.00 Build 0)  -->
<svg version="1.1" id="Layer_1" xmlns="http://www.w3.org/2000/svg" xmlns:xlink="http://www.w3.org/1999/xlink" x="0px" y="0px"
	 viewBox="0 0 32 32" enable-background="new 0 0 32 32" xml:space="preserve">
<rect x="2" y="2" fill="#EBB963" width="20" height="24"/>
<polygon fill="#FFFFFF" points="10,0 10,2 6,2 6,4 18,4 18,2 14,2 14,0 "/>
<polygon opacity="0.6" points="10,0 10,2 6,2 6,4 18,4 18,2 14,2 14,0 "/>
<polygon fill="#FFFFFF" points="10,6 10,22 10,30 28,30 28,12 22,6 "/>
<polygon opacity="0.6" points="10,6 10,22 10,30 28,30 28,12 22,6 "/>
<g>
	<polygon fill="#FFFFFF" points="19.8,14 19.8,8 12,8 12,28 26,28 26,14 	"/>
</g>
<polygon fill="#FFFFFF" points="22,8 22,12 26,12 "/>
<g opacity="0.3">
	<rect x="14" y="14" width="4" height="2"/>
	<rect x="14" y="18" width="10" height="2"/>
	<rect x="14" y="22" width="10" height="2"/>
</g>
<g id="Layer_2">
</g>
</svg>
