<?xml version="1.0" encoding="utf-8"?>
<!-- Generator: Adobe Illustrator 24.1.3, SVG Export Plug-In . SVG Version: 6.00 Build 0)  -->
<svg version="1.1" id="Layer_1" xmlns="http://www.w3.org/2000/svg" xmlns:xlink="http://www.w3.org/1999/xlink" x="0px" y="0px"
	 viewBox="0 0 32 32" style="enable-background:new 0 0 32 32;" xml:space="preserve">
<style type="text/css">
	.Black{fill:#737374;}
	.Yellow{fill:#FCB01B;}
	.Green{fill:#129C49;}
	.Blue{fill:#387CB7;}
	.Red{fill:#D02127;}
	.White{fill:#FFFFFF;}
	.st0{opacity:0.5;}
	.st1{opacity:0.75;}
	.st2{opacity:0.25;}
	.st3{display:none;fill:#737374;}
</style>
<path class="Black" d="M8,12H6V2h14v10h-2V4H8V12z M20.6,30l0.7-2h-8.1h-2l0,0H8v-8h13.2l4.8-4.8V12c0-1.1-0.9-2-2-2h-2v3
	c0,0.6-0.4,1-1,1H5c-0.6,0-1-0.4-1-1v-3H2c-1.1,0-2,0.9-2,2v12c0,1.1,0.9,2,2,2h4v4H20.6z"/>
<polygon class="Yellow" points="28,16 18,26 24,26 22,32 32,22 26,22 "/>
</svg>
