<?xml version="1.0" encoding="utf-8"?>
<!-- Generator: Adobe Illustrator 24.1.3, SVG Export Plug-In . SVG Version: 6.00 Build 0)  -->
<svg version="1.1" id="Layer_1" xmlns="http://www.w3.org/2000/svg" xmlns:xlink="http://www.w3.org/1999/xlink" x="0px" y="0px"
	 viewBox="0 0 32 32" style="enable-background:new 0 0 32 32;" xml:space="preserve">
<style type="text/css">
	.Black{fill:#737374;}
	.Yellow{fill:#FCB01B;}
	.Green{fill:#129C49;}
	.Blue{fill:#387CB7;}
	.Red{fill:#D02127;}
	.White{fill:#FFFFFF;}
	.st0{opacity:0.5;}
	.st1{opacity:0.75;}
	.st2{opacity:0.25;}
	.st3{display:none;fill:#737374;}
</style>
<circle class="Yellow" cx="19" cy="9" r="3"/>
<polygon class="Green" points="16,20 8,12 4,16 4,22 16,22 "/>
<path class="Black" d="M16.1,24.3l0-0.3H2V4h24v10.1c0.7,0.1,1.4,0.2,2,0.5V3c0-0.5-0.5-1-1-1H1C0.5,2,0,2.5,0,3v22c0,0.5,0.5,1,1,1
	h15.5C16.3,25.5,16.2,24.9,16.1,24.3z"/>
<path class="Blue" d="M31.9,22L31.9,22c-0.5-3.4-3.4-6-6.9-6c-1.9,0-3.7,0.8-4.9,2.1L18,16v6h0.1H24l-2.5-2.5
	c0.9-0.9,2.1-1.5,3.5-1.5c2.4,0,4.4,1.7,4.9,4h0c0.1,0.3,0.1,0.7,0.1,1c0,2.8-2.2,5-5,5c-2.4,0-4.4-1.7-4.9-4h-2
	c0.5,3.4,3.4,6,6.9,6c3.9,0,7-3.1,7-7C32,22.7,32,22.3,31.9,22z"/>
</svg>
