<?xml version="1.0" encoding="utf-8"?>
<!-- Generator: Adobe Illustrator 24.1.3, SVG Export Plug-In . SVG Version: 6.00 Build 0)  -->
<svg version="1.1" id="Layer_1" xmlns="http://www.w3.org/2000/svg" xmlns:xlink="http://www.w3.org/1999/xlink" x="0px" y="0px"
	 viewBox="0 0 32 32" style="enable-background:new 0 0 32 32;" xml:space="preserve">
<style type="text/css">
	.Black{fill:#737374;}
	.Yellow{fill:#FCB01B;}
	.Green{fill:#129C49;}
	.Blue{fill:#387CB7;}
	.Red{fill:#D02127;}
	.White{fill:#FFFFFF;}
	.st0{opacity:0.5;}
	.st1{opacity:0.75;}
	.st2{opacity:0.25;}
	.st3{display:none;fill:#737374;}
</style>
<g class="st0">
	<path class="Black" d="M7,0H1C0.5,0,0,0.4,0,1v18c0,0.6,0.5,1,1,1h6c0.5,0,1-0.4,1-1V1C8,0.4,7.5,0,7,0z"/>
</g>
<path class="Blue" d="M29,22H11c-0.5,0-1,0.4-1,1v6c0,0.6,0.5,1,1,1h18c0.5,0,1-0.4,1-1v-6C30,22.4,29.5,22,29,22z"/>
<path class="Black" d="M22,14c0-5.5-4.5-10-10-10v2c4.4,0,8,3.6,8,8h-4l5,5l5-5H22z"/>
</svg>
