<?xml version="1.0" encoding="utf-8"?>
<!-- Generator: Adobe Illustrator 19.2.1, SVG Export Plug-In . SVG Version: 6.00 Build 0)  -->
<svg version="1.1"  xmlns="http://www.w3.org/2000/svg" xmlns:xlink="http://www.w3.org/1999/xlink" x="0px" y="0px"
	 viewBox="0 0 21 21" style="enable-background:new 0 0 21 21;" xml:space="preserve">
<style type="text/css">
	.Black{fill:#727272;}
	.White{fill:#FFFFFF;}
</style>
<g>
	<path class="White" d="M8.5,20.5c-4.5-0.3-8-4-8-8.5c0-4.7,3.8-8.5,8.5-8.5c4.3,0,8,3.2,8.4,7.6l0,0.4h2.4l-3.4,3.8l-3.4-3.8h2.4
		l-0.1-0.6C14.9,7.8,12.2,5.5,9,5.5c-3.6,0-6.5,2.9-6.5,6.5c0,3.4,2.6,6.2,6,6.5V20.5z"/>
	<path class="Black" d="M9,4c4.1,0,7.5,3.1,7.9,7.1L17,12h0.9h0.8l-2.3,2.5L14.2,12h0.7h1.2l-0.2-1.2C15.3,7.5,12.4,5,9,5
		c-3.9,0-7,3.1-7,7c0,3.5,2.6,6.4,6,6.9v1c-3.9-0.5-7-3.9-7-7.9C1,7.6,4.6,4,9,4 M9,3c-5,0-9,4-9,9s4,9,9,9v-3c-3.3,0-6-2.7-6-6
		s2.7-6,6-6c3,0,5.4,2.2,5.9,5H12l4.5,5l4.5-5h-3.1C17.4,6.5,13.6,3,9,3L9,3z"/>
</g>
</svg>
