<?xml version="1.0" encoding="utf-8"?>
<!-- Generator: Adobe Illustrator 20.1.0, SVG Export Plug-In . SVG Version: 6.00 Build 0)  -->
<svg version="1.1"  xmlns="http://www.w3.org/2000/svg" xmlns:xlink="http://www.w3.org/1999/xlink" x="0px" y="0px"
	 viewBox="0 0 32 32" style="enable-background:new 0 0 32 32;" xml:space="preserve">
<style type="text/css">
	.Blue{fill:#1177D7;}
	.White{fill:#FFFFFF;}
	.Black{fill:#727272;}
</style>
<path class="Black" d="M26,28H6c-1.1,0-2-0.9-2-2V6c0-1.1,0.9-2,2-2h20c1.1,0,2,0.9,2,2v20C28,27.1,27.1,28,26,28z"/>
<rect x="6" y="6" class="White" width="20" height="20"/>
<path class="Blue" d="M19.5,21.5L16,18l2-2l3.5,3.5L24,17v7h-7L19.5,21.5z M14,16l-3.5-3.5L8,15V8h7l-2.5,2.5L16,14L14,16z"/>
</svg>
