<?xml version="1.0" encoding="utf-8"?>
<!-- Generator: Adobe Illustrator 24.1.3, SVG Export Plug-In . SVG Version: 6.00 Build 0)  -->
<svg version="1.1" id="Layer_1" xmlns="http://www.w3.org/2000/svg" xmlns:xlink="http://www.w3.org/1999/xlink" x="0px" y="0px"
	 viewBox="0 0 32 32" style="enable-background:new 0 0 32 32;" xml:space="preserve">
<style type="text/css">
	.Black{fill:#737374;}
	.Yellow{fill:#FCB01B;}
	.Green{fill:#129C49;}
	.Blue{fill:#387CB7;}
	.Red{fill:#D02127;}
	.White{fill:#FFFFFF;}
	.st0{opacity:0.5;}
	.st1{opacity:0.75;}
	.st2{opacity:0.25;}
	.st3{display:none;fill:#737374;}
</style>
<circle class="Yellow" cx="21" cy="11" r="3"/>
<polygon class="Green" points="20,24 10,14 6,18 6,24 "/>
<g class="st0">
	<polygon class="Green" points="22,24 18,20 20,18 26,24 	"/>
</g>
<path class="Blue" d="M2,10V4h6v2H4v4H2z M28,22v4h-4v2h6v-6H28z M2,22v6h6v-2H4v-4H2z M28,10V6h-4V4h6v6H28z"/>
<g class="st0">
	<path class="Black" d="M22,6H10V4h12V6z M4,12H2v8h2V12z M30,12h-2v8h2V12z M22,26H10v2h12V26z"/>
</g>
</svg>
