<?xml version="1.0" encoding="utf-8"?>
<!-- Generator: Adobe Illustrator 24.1.3, SVG Export Plug-In . SVG Version: 6.00 Build 0)  -->
<svg version="1.1" id="Layer_1" xmlns="http://www.w3.org/2000/svg" xmlns:xlink="http://www.w3.org/1999/xlink" x="0px" y="0px"
	 viewBox="0 0 32 32" style="enable-background:new 0 0 32 32;" xml:space="preserve">
<style type="text/css">
	.Black{fill:#737374;}
	.Yellow{fill:#FCB01B;}
	.Green{fill:#129C49;}
	.Blue{fill:#387CB7;}
	.Red{fill:#D02127;}
	.White{fill:#FFFFFF;}
	.st0{opacity:0.5;}
	.st1{opacity:0.75;}
	.st2{opacity:0.25;}
	.st3{display:none;fill:#737374;}
</style>
<path class="Blue" d="M29,6h-4c-0.5,0-1,0.4-1,1v4c0,0.6,0.5,1,1,1h4c0.5,0,1-0.4,1-1V7C30,6.4,29.5,6,29,6z M28,10h-2V8h2V10z"/>
<polygon class="Black" points="4,2 4,0 1,3 4,6 4,4 30,4 30,2 "/>
<path class="Blue" d="M17,12h-4c-0.5,0-1,0.4-1,1v4c0,0.6,0.5,1,1,1h4c0.5,0,1-0.4,1-1v-4C18,12.4,17.5,12,17,12z M16,16h-2v-2h2V16
	z M17,20h-4c-0.5,0-1,0.4-1,1v4c0,0.6,0.5,1,1,1h4c0.5,0,1-0.4,1-1v-4C18,20.4,17.5,20,17,20z M16,24h-2v-2h2V24z"/>
<path class="Blue" d="M5,26H1c-0.5,0-1,0.4-1,1v4c0,0.6,0.5,1,1,1h4c0.5,0,1-0.4,1-1v-4C6,26.4,5.5,26,5,26z M4,30H2v-2h2V30z"/>
<g class="st0">
	<path class="Black" d="M28,12v10v2h-2h-8v-2h8v-6h-8v-2h8v-2H28z M14,26v2H6v2h10v-2v-2H14z"/>
</g>
</svg>
