<?xml version="1.0" encoding="utf-8"?>
<!-- Generator: Adobe Illustrator 23.0.6, SVG Export Plug-In . SVG Version: 6.00 Build 0)  -->
<svg version="1.1" id="Layer_1" xmlns="http://www.w3.org/2000/svg" xmlns:xlink="http://www.w3.org/1999/xlink" x="0px" y="0px"
	 viewBox="0 0 32 32" style="enable-background:new 0 0 32 32;" xml:space="preserve">
<style type="text/css">
	.Blue{fill:#1177D7;}
</style>
<path class="Blue" d="M10.4,15.6c-0.5-0.3-0.5-0.8,0-1.1L20,7.2V4.6c0-0.6-0.4-0.8-0.9-0.5L6.4,14.5c-0.5,0.3-0.5,0.7,0,1.1
	l12.7,10.3c0.5,0.3,0.9,0.1,0.9-0.5v-2.6L10.4,15.6z"/>
<path class="Blue" d="M14.4,14.5c-0.5,0.3-0.5,0.8,0,1.1l14.7,10.3c0.5,0.3,0.9,0.1,0.9-0.5V4.6c0-0.6-0.4-0.8-0.9-0.5L14.4,14.5z"
	/>
<path class="Blue" d="M3,26H1c-0.6,0-1-0.4-1-1V5c0-0.6,0.4-1,1-1h2c0.6,0,1,0.4,1,1v20C4,25.6,3.6,26,3,26z"/>
</svg>
