<?xml version="1.0" encoding="utf-8"?>
<!-- Generator: Adobe Illustrator 21.1.0, SVG Export Plug-In . SVG Version: 6.00 Build 0)  -->
<svg version="1.1" id="Layer_1" xmlns="http://www.w3.org/2000/svg" xmlns:xlink="http://www.w3.org/1999/xlink" x="0px" y="0px"
	 viewBox="0 0 32 32" style="enable-background:new 0 0 32 32;" xml:space="preserve">
<style type="text/css">
	.Black{fill:#727272;}
	.Blue{fill:#1177D7;}
</style>
<rect x="6" y="6" class="Black" width="8" height="10"/>
<path class="Blue" d="M30,23v-2l-2.2-0.4c-0.2-0.6-0.4-1.3-0.8-1.8l1.3-1.8l-1.4-1.4l-1.8,1.3c-0.5-0.3-1.2-0.6-1.8-0.7L23,14h-2
	l-0.4,2.2c-0.6,0.2-1.3,0.4-1.8,0.7L17,15.6L15.6,17l1.3,1.8c-0.3,0.5-0.6,1.2-0.8,1.8L14,21v2l2.2,0.4c0.2,0.6,0.4,1.3,0.8,1.8
	L15.7,27l1.4,1.4l1.8-1.3c0.5,0.3,1.2,0.6,1.8,0.7L21,30h2l0.4-2.2c0.6-0.2,1.3-0.4,1.8-0.7l1.8,1.3l1.4-1.4l-1.3-1.8
	c0.3-0.5,0.6-1.2,0.8-1.8L30,23z M22,24c-1.1,0-2-0.9-2-2s0.9-2,2-2s2,0.9,2,2S23.1,24,22,24z"/>
<path class="Black" d="M12.8,18H6v6h6.2c-0.1-0.6-0.2-1.3-0.2-2C12,20.6,12.3,19.2,12.8,18z"/>
<path class="Black" d="M16,6v8c1.7-1.3,3.7-2,6-2c0.7,0,1.4,0.1,2,0.2V6H16z"/>
<path class="Black" d="M4,26V4h22v8.8c0.7,0.3,1.4,0.7,2,1.2V4V3c0-0.6-0.4-1-1-1h-1H3C2.5,2,2,2.5,2,3v24c0,0.5,0.5,1,1,1h11
	c0,0,0,0,0,0c-0.5-0.6-0.8-1.3-1.1-2H4z"/>
</svg>
