<?xml version="1.0" encoding="utf-8"?>
<!-- Generator: Adobe Illustrator 23.0.1, SVG Export Plug-In . SVG Version: 6.00 Build 0)  -->
<svg version="1.1" id="Layer_1" xmlns="http://www.w3.org/2000/svg" xmlns:xlink="http://www.w3.org/1999/xlink" x="0px" y="0px"
	 viewBox="0 0 32 32" style="enable-background:new 0 0 32 32;" xml:space="preserve">
<style type="text/css">
	.Green{fill:#039C23;}
	.Black{fill:#727272;}
	.Blue{fill:#1177D7;}
</style>
<path class="Green" d="M24,14c-4.42,0-8,3.58-8,8s3.58,8,8,8s8-3.58,8-8S28.42,14,24,14z M22,26v-8l6,4L22,26z"/>
<rect x="4" y="6" class="Blue" width="12" height="2"/>
<rect x="4" y="10" class="Blue" width="12" height="2"/>
<rect x="4" y="14" class="Blue" width="12" height="2"/>
<path class="Black" d="M2,24V4h22v8c0.68,0,1.35,0.07,2,0.2V3c0-0.55-0.45-1-1-1H1C0.45,2,0,2.45,0,3v22c0,0.55,0.45,1,1,1h13.84
	c-0.28-0.64-0.5-1.3-0.64-2H2z"/>
<path class="Blue" d="M4,18v2h10.2c0.14-0.7,0.36-1.36,0.64-2H4z"/>
<polygon class="Blue" points="18,8 18,10 18,10 18,12 22,9 18,6 18,8 "/>
</svg>
