<?xml version="1.0" encoding="utf-8"?>
<!-- Generator: Adobe Illustrator 23.0.1, SVG Export Plug-In . SVG Version: 6.00 Build 0)  -->
<svg version="1.1" id="Layer_1" xmlns="http://www.w3.org/2000/svg" xmlns:xlink="http://www.w3.org/1999/xlink" x="0px" y="0px"
	 viewBox="0 0 32 32" style="enable-background:new 0 0 32 32;" xml:space="preserve">
<style type="text/css">
	.Green{fill:#039C23;}
	.Black{fill:#727272;}
</style>
<path class="Black" d="M14,10v2h4.02c1.67-1.25,3.74-2,5.98-2H14z"/>
<path class="Black" d="M14,14v2h0.84c0.31-0.72,0.71-1.38,1.18-2H14z"/>
<path class="Black" d="M2,22V6h24v4.2c0.7,0.14,1.36,0.36,2,0.64V5c0-0.55-0.45-1-1-1H1C0.45,4,0,4.45,0,5v18c0,0.55,0.45,1,1,1
	h13.84c-0.28-0.64-0.5-1.3-0.64-2H2z"/>
<path class="Black" d="M9.92,18l-0.46-1.19H9.4c-0.4,0.51-0.81,0.86-1.24,1.05s-0.98,0.29-1.66,0.29c-0.84,0-1.5-0.24-1.98-0.72
	c-0.48-0.48-0.72-1.16-0.72-2.05c0-0.93,0.32-1.61,0.97-2.05c0.65-0.44,1.63-0.68,2.93-0.73l1.52-0.05v-0.38
	c0-0.89-0.45-1.33-1.36-1.33c-0.7,0-1.52,0.21-2.46,0.63L4.61,9.88c1-0.53,2.12-0.79,3.34-0.79c1.17,0,2.07,0.26,2.7,0.77
	c0.63,0.51,0.94,1.29,0.94,2.33V18H9.92z M9.22,13.95L8.3,13.98c-0.69,0.02-1.21,0.15-1.55,0.38c-0.34,0.23-0.51,0.58-0.51,1.05
	c0,0.67,0.39,1.01,1.16,1.01c0.55,0,0.99-0.16,1.32-0.48c0.33-0.32,0.5-0.74,0.5-1.27V13.95z"/>
<path class="Green" d="M24,12c-4.42,0-8,3.58-8,8s3.58,8,8,8s8-3.58,8-8S28.42,12,24,12z M22,24v-8l6,4L22,24z"/>
</svg>
