<?xml version="1.0" encoding="utf-8"?>
<!-- Generator: Adobe Illustrator 24.0.3, SVG Export Plug-In . SVG Version: 6.00 Build 0)  -->
<svg version="1.1" id="Layer_1" xmlns="http://www.w3.org/2000/svg" xmlns:xlink="http://www.w3.org/1999/xlink" x="0px" y="0px"
	 viewBox="0 0 32 32" style="enable-background:new 0 0 32 32;" xml:space="preserve">
<style type="text/css">
	.Black{fill:#727272;}
</style>
<path class="Black" d="M9.5,12.5c-0.2-0.6-0.6-1-0.5-1.6c0.1-0.2,0.5-0.3,0.6-0.3c-1.3-4-0.6-8.5,5-8.5c6,0,6.3,3.4,6.3,3.4
	s3.3-0.2,1.3,5.3c0.1-0.1,0.5-0.1,0.6,0.3c0.1,0.6-0.1,1-0.3,1.6c-0.3,0.6,0.1,1.9-1,1.8v0.1C20.8,17.1,19.1,20,16,20
	s-4.7-2.9-5.4-5.5c0-0.1,0-0.2,0-0.2C9.4,14.4,9.8,13,9.5,12.5z M20,20c-0.9,1.7-1.8,4-4,4s-3.1-2.3-4-4C9.3,24,2,21.3,2,30h28
	C30,21.3,22.7,24,20,20z"/>
</svg>
