<?xml version="1.0" encoding="utf-8"?>
<!-- Generator: Adobe Illustrator 23.0.1, SVG Export Plug-In . SVG Version: 6.00 Build 0)  -->
<svg version="1.1" id="Layer_1" xmlns="http://www.w3.org/2000/svg" xmlns:xlink="http://www.w3.org/1999/xlink" x="0px" y="0px"
	 viewBox="0 0 32 32" style="enable-background:new 0 0 32 32;" xml:space="preserve">
<style type="text/css">
	.Black{fill:#727272;}
	.Blue{fill:#1177D7;}
	.Yellow{fill:#FFB115;}
	.st0{opacity:0.3;}
</style>
<rect x="12" y="6" class="Blue" width="10" height="2"/>
<rect x="12" y="10" class="Blue" width="10" height="2"/>
<rect x="12" y="18" class="Blue" width="2" height="2"/>
<path class="Black" d="M10,24H2V4h8h14v8h2V3c0-0.55-0.45-1-1-1H1C0.45,2,0,2.45,0,3v22c0,0.55,0.45,1,1,1h13v-2H10z"/>
<g class="st0">
	<polygon class="Black" points="14,16 14,14 10,14 10,3 1,3 1,25 10,25 10,16 	"/>
</g>
<path class="Black" d="M31,14H17c-0.55,0-1,0.45-1,1v14c0,0.55,0.45,1,1,1h14c0.55,0,1-0.45,1-1V15C32,14.45,31.55,14,31,14z M30,28
	H18V16h12V28z"/>
<path class="Yellow" d="M20,18v8h8v-8H20z M26,24h-4v-4h4V24z"/>
</svg>
